<?xml version="1.0" encoding="UTF-8" standalone="no"?><svg xmlns="http://www.w3.org/2000/svg" xmlns:xlink="http://www.w3.org/1999/xlink" clip-rule="evenodd" stroke-miterlimit="4.00" viewBox="0 0 1024 768"><desc>SVG generated by Keynote</desc><defs></defs><g transform="matrix(1.00, 0.00, -0.00, -1.00, 0.0, 768.0)"><path d="M 0.0 768.0 L 1024.0 768.0 L 1024.0 0.0 L 0.0 0.0 Z M 0.0 768.0 " fill="#FEFFFF"></path><text xml:space="preserve" font-family="Helvetica-Light" font-size="70.4" fill="#000000" transform="matrix(1.00, 0.00, -0.00, -1.00, 193.0, 442.0)">C</text><text xml:space="preserve" font-family="Helvetica-Light" font-size="70.4" fill="#000000" transform="matrix(1.00, 0.00, -0.00, -1.00, 243.8, 442.0)">o</text><text xml:space="preserve" font-family="Helvetica-Light" font-size="70.4" fill="#000000" transform="matrix(1.00, 0.00, -0.00, -1.00, 283.0, 442.0)">n</text><text xml:space="preserve" font-family="Helvetica-Light" font-size="70.4" fill="#000000" transform="matrix(1.00, 0.00, -0.00, -1.00, 322.1, 442.0)">t</text><text xml:space="preserve" font-family="Helvetica-Light" font-size="70.4" fill="#000000" transform="matrix(1.00, 0.00, -0.00, -1.00, 341.7, 442.0)">i</text><text xml:space="preserve" font-family="Helvetica-Light" font-size="70.4" fill="#000000" transform="matrix(1.00, 0.00, -0.00, -1.00, 357.3, 442.0)">n</text><text xml:space="preserve" font-family="Helvetica-Light" font-size="70.4" fill="#000000" transform="matrix(1.00, 0.00, -0.00, -1.00, 396.5, 442.0)">u</text><text xml:space="preserve" font-family="Helvetica-Light" font-size="70.4" fill="#000000" transform="matrix(1.00, 0.00, -0.00, -1.00, 435.6, 442.0)">e</text><text xml:space="preserve" font-family="Helvetica-Light" font-size="70.4" fill="#000000" transform="matrix(1.00, 0.00, -0.00, -1.00, 474.7, 442.0)"> </text><text xml:space="preserve" font-family="Helvetica-Light" font-size="70.4" fill="#000000" transform="matrix(1.00, 0.00, -0.00, -1.00, 494.3, 442.0)">t</text><text xml:space="preserve" font-family="Helvetica-Light" font-size="70.4" fill="#000000" transform="matrix(1.00, 0.00, -0.00, -1.00, 513.9, 442.0)">o</text><text xml:space="preserve" font-family="Helvetica-Light" font-size="70.4" fill="#000000" transform="matrix(1.00, 0.00, -0.00, -1.00, 553.0, 442.0)"> </text><text xml:space="preserve" font-family="Helvetica-Light" font-size="70.4" fill="#000000" transform="matrix(1.00, 0.00, -0.00, -1.00, 572.6, 442.0)">e</text><text xml:space="preserve" font-family="Helvetica-Light" font-size="70.4" fill="#000000" transform="matrix(1.00, 0.00, -0.00, -1.00, 611.7, 442.0)">d</text><text xml:space="preserve" font-family="Helvetica-Light" font-size="70.4" fill="#000000" transform="matrix(1.00, 0.00, -0.00, -1.00, 654.8, 442.0)">u</text><text xml:space="preserve" font-family="Helvetica-Light" font-size="70.4" fill="#000000" transform="matrix(1.00, 0.00, -0.00, -1.00, 693.9, 442.0)">c</text><text xml:space="preserve" font-family="Helvetica-Light" font-size="70.4" fill="#000000" transform="matrix(1.00, 0.00, -0.00, -1.00, 733.0, 442.0)">a</text><text xml:space="preserve" font-family="Helvetica-Light" font-size="70.4" fill="#000000" transform="matrix(1.00, 0.00, -0.00, -1.00, 772.2, 442.0)">t</text><text xml:space="preserve" font-family="Helvetica-Light" font-size="70.4" fill="#000000" transform="matrix(1.00, 0.00, -0.00, -1.00, 791.8, 442.0)">e</text><text xml:space="preserve" font-family="Helvetica-Light" font-size="70.4" fill="#000000" transform="matrix(1.00, 0.00, -0.00, -1.00, 830.9, 442.0)"> </text><text xml:space="preserve" font-family="Helvetica-Light" font-size="70.4" fill="#000000" transform="matrix(1.00, 0.00, -0.00, -1.00, 253.0, 358.0)">y</text><text xml:space="preserve" font-family="Helvetica-Light" font-size="70.4" fill="#000000" transform="matrix(1.00, 0.00, -0.00, -1.00, 288.2, 358.0)">o</text><text xml:space="preserve" font-family="Helvetica-Light" font-size="70.4" fill="#000000" transform="matrix(1.00, 0.00, -0.00, -1.00, 327.3, 358.0)">u</text><text xml:space="preserve" font-family="Helvetica-Light" font-size="70.4" fill="#000000" transform="matrix(1.00, 0.00, -0.00, -1.00, 366.5, 358.0)">r</text><text xml:space="preserve" font-family="Helvetica-Light" font-size="70.4" fill="#000000" transform="matrix(1.00, 0.00, -0.00, -1.00, 389.9, 358.0)">s</text><text xml:space="preserve" font-family="Helvetica-Light" font-size="70.4" fill="#000000" transform="matrix(1.00, 0.00, -0.00, -1.00, 425.1, 358.0)">e</text><text xml:space="preserve" font-family="Helvetica-Light" font-size="70.4" fill="#000000" transform="matrix(1.00, 0.00, -0.00, -1.00, 464.3, 358.0)">l</text><text xml:space="preserve" font-family="Helvetica-Light" font-size="70.4" fill="#000000" transform="matrix(1.00, 0.00, -0.00, -1.00, 479.9, 358.0)">f</text><text xml:space="preserve" font-family="Helvetica-Light" font-size="70.4" fill="#000000" transform="matrix(1.00, 0.00, -0.00, -1.00, 499.5, 358.0)"> </text><text xml:space="preserve" font-family="Helvetica-Light" font-size="70.4" fill="#000000" transform="matrix(1.00, 0.00, -0.00, -1.00, 519.0, 358.0)">a</text><text xml:space="preserve" font-family="Helvetica-Light" font-size="70.4" fill="#000000" transform="matrix(1.00, 0.00, -0.00, -1.00, 558.2, 358.0)">t</text><text xml:space="preserve" font-family="Helvetica-Light" font-size="70.4" fill="#000000" transform="matrix(1.00, 0.00, -0.00, -1.00, 577.8, 358.0)"> </text><text xml:space="preserve" font-family="Helvetica-Light" font-size="70.4" fill="#000000" transform="matrix(1.00, 0.00, -0.00, -1.00, 597.3, 358.0)">e</text><text xml:space="preserve" font-family="Helvetica-Light" font-size="70.4" fill="#000000" transform="matrix(1.00, 0.00, -0.00, -1.00, 636.5, 358.0)">v</text><text xml:space="preserve" font-family="Helvetica-Light" font-size="70.4" fill="#000000" transform="matrix(1.00, 0.00, -0.00, -1.00, 671.7, 358.0)">e</text><text xml:space="preserve" font-family="Helvetica-Light" font-size="70.4" fill="#000000" transform="matrix(1.00, 0.00, -0.00, -1.00, 710.8, 358.0)">r</text><text xml:space="preserve" font-family="Helvetica-Light" font-size="70.4" fill="#000000" transform="matrix(1.00, 0.00, -0.00, -1.00, 735.5, 358.0)">y</text><text xml:space="preserve" font-family="Helvetica-Light" font-size="70.4" fill="#000000" transform="matrix(1.00, 0.00, -0.00, -1.00, 770.7, 358.0)"> </text><text xml:space="preserve" font-family="Helvetica-Light" font-size="70.4" fill="#000000" transform="matrix(1.00, 0.00, -0.00, -1.00, 333.0, 274.0)">o</text><text xml:space="preserve" font-family="Helvetica-Light" font-size="70.4" fill="#000000" transform="matrix(1.00, 0.00, -0.00, -1.00, 372.1, 274.0)">p</text><text xml:space="preserve" font-family="Helvetica-Light" font-size="70.4" fill="#000000" transform="matrix(1.00, 0.00, -0.00, -1.00, 415.2, 274.0)">p</text><text xml:space="preserve" font-family="Helvetica-Light" font-size="70.4" fill="#000000" transform="matrix(1.00, 0.00, -0.00, -1.00, 458.2, 274.0)">o</text><text xml:space="preserve" font-family="Helvetica-Light" font-size="70.4" fill="#000000" transform="matrix(1.00, 0.00, -0.00, -1.00, 497.3, 274.0)">r</text><text xml:space="preserve" font-family="Helvetica-Light" font-size="70.4" fill="#000000" transform="matrix(1.00, 0.00, -0.00, -1.00, 522.0, 274.0)">t</text><text xml:space="preserve" font-family="Helvetica-Light" font-size="70.4" fill="#000000" transform="matrix(1.00, 0.00, -0.00, -1.00, 541.6, 274.0)">u</text><text xml:space="preserve" font-family="Helvetica-Light" font-size="70.4" fill="#000000" transform="matrix(1.00, 0.00, -0.00, -1.00, 580.7, 274.0)">n</text><text xml:space="preserve" font-family="Helvetica-Light" font-size="70.4" fill="#000000" transform="matrix(1.00, 0.00, -0.00, -1.00, 619.9, 274.0)">i</text><text xml:space="preserve" font-family="Helvetica-Light" font-size="70.4" fill="#000000" transform="matrix(1.00, 0.00, -0.00, -1.00, 635.5, 274.0)">t</text><text xml:space="preserve" font-family="Helvetica-Light" font-size="70.4" fill="#000000" transform="matrix(1.00, 0.00, -0.00, -1.00, 655.1, 274.0)">y</text></g></svg>