<?xml version="1.0" encoding="UTF-8" standalone="no"?><svg xmlns="http://www.w3.org/2000/svg" xmlns:xlink="http://www.w3.org/1999/xlink" clip-rule="evenodd" stroke-miterlimit="4.00" viewBox="0 0 807 53"><desc>SVG generated by Keynote</desc><defs></defs><g transform="matrix(1.00, 0.00, -0.00, -1.00, 0.0, 53.0)"><text xml:space="preserve" font-family="Helvetica-Light" font-size="53.6" fill="#000000" transform="matrix(1.00, 0.00, -0.00, -1.00, -1.0, 12.0)">S</text><text xml:space="preserve" font-family="Helvetica-Light" font-size="53.6" fill="#000000" transform="matrix(1.00, 0.00, -0.00, -1.00, 31.7, 12.0)">a</text><text xml:space="preserve" font-family="Helvetica-Light" font-size="53.6" fill="#000000" transform="matrix(1.00, 0.00, -0.00, -1.00, 61.6, 12.0)">l</text><text xml:space="preserve" font-family="Helvetica-Light" font-size="53.6" fill="#000000" transform="matrix(1.00, 0.00, -0.00, -1.00, 73.5, 12.0)">l</text><text xml:space="preserve" font-family="Helvetica-Light" font-size="53.6" fill="#000000" transform="matrix(1.00, 0.00, -0.00, -1.00, 85.3, 12.0)">y</text><text xml:space="preserve" font-family="Helvetica-Light" font-size="53.6" fill="#000000" transform="matrix(1.00, 0.00, -0.00, -1.00, 112.1, 12.0)"> </text><text xml:space="preserve" font-family="Helvetica-Light" font-size="53.6" fill="#000000" transform="matrix(1.00, 0.00, -0.00, -1.00, 127.1, 12.0)">h</text><text xml:space="preserve" font-family="Helvetica-Light" font-size="53.6" fill="#000000" transform="matrix(1.00, 0.00, -0.00, -1.00, 156.9, 12.0)">a</text><text xml:space="preserve" font-family="Helvetica-Light" font-size="53.6" fill="#000000" transform="matrix(1.00, 0.00, -0.00, -1.00, 186.7, 12.0)">s</text><text xml:space="preserve" font-family="Helvetica-Light" font-size="53.6" fill="#000000" transform="matrix(1.00, 0.00, -0.00, -1.00, 213.5, 12.0)"> </text><text xml:space="preserve" font-family="Helvetica-Light" font-size="53.6" fill="#000000" transform="matrix(1.00, 0.00, -0.00, -1.00, 228.4, 12.0)">h</text><text xml:space="preserve" font-family="Helvetica-Light" font-size="53.6" fill="#000000" transform="matrix(1.00, 0.00, -0.00, -1.00, 258.2, 12.0)">e</text><text xml:space="preserve" font-family="Helvetica-Light" font-size="53.6" fill="#000000" transform="matrix(1.00, 0.00, -0.00, -1.00, 288.0, 12.0)">r</text><text xml:space="preserve" font-family="Helvetica-Light" font-size="53.6" fill="#000000" transform="matrix(1.00, 0.00, -0.00, -1.00, 305.8, 12.0)"> </text><text xml:space="preserve" font-family="Helvetica-Light" font-size="53.6" fill="#000000" transform="matrix(1.00, 0.00, -0.00, -1.00, 320.7, 12.0)">c</text><text xml:space="preserve" font-family="Helvetica-Light" font-size="53.6" fill="#000000" transform="matrix(1.00, 0.00, -0.00, -1.00, 350.5, 12.0)">h</text><text xml:space="preserve" font-family="Helvetica-Light" font-size="53.6" fill="#000000" transform="matrix(1.00, 0.00, -0.00, -1.00, 380.3, 12.0)">o</text><text xml:space="preserve" font-family="Helvetica-Light" font-size="53.6" fill="#000000" transform="matrix(1.00, 0.00, -0.00, -1.00, 410.1, 12.0)">i</text><text xml:space="preserve" font-family="Helvetica-Light" font-size="53.6" fill="#000000" transform="matrix(1.00, 0.00, -0.00, -1.00, 422.0, 12.0)">c</text><text xml:space="preserve" font-family="Helvetica-Light" font-size="53.6" fill="#000000" transform="matrix(1.00, 0.00, -0.00, -1.00, 451.8, 12.0)">e</text><text xml:space="preserve" font-family="Helvetica-Light" font-size="53.6" fill="#000000" transform="matrix(1.00, 0.00, -0.00, -1.00, 481.6, 12.0)"> </text><text xml:space="preserve" font-family="Helvetica-Light" font-size="53.6" fill="#000000" transform="matrix(1.00, 0.00, -0.00, -1.00, 496.5, 12.0)">o</text><text xml:space="preserve" font-family="Helvetica-Light" font-size="53.6" fill="#000000" transform="matrix(1.00, 0.00, -0.00, -1.00, 526.3, 12.0)">f</text><text xml:space="preserve" font-family="Helvetica-Light" font-size="53.6" fill="#000000" transform="matrix(1.00, 0.00, -0.00, -1.00, 541.2, 12.0)"> </text><text xml:space="preserve" font-family="Helvetica-Light" font-size="53.6" fill="#000000" transform="matrix(1.00, 0.00, -0.00, -1.00, 556.1, 12.0)">f</text><text xml:space="preserve" font-family="Helvetica-Light" font-size="53.6" fill="#000000" transform="matrix(1.00, 0.00, -0.00, -1.00, 571.0, 12.0)">r</text><text xml:space="preserve" font-family="Helvetica-Light" font-size="53.6" fill="#000000" transform="matrix(1.00, 0.00, -0.00, -1.00, 588.9, 12.0)">a</text><text xml:space="preserve" font-family="Helvetica-Light" font-size="53.6" fill="#000000" transform="matrix(1.00, 0.00, -0.00, -1.00, 618.7, 12.0)">m</text><text xml:space="preserve" font-family="Helvetica-Light" font-size="53.6" fill="#000000" transform="matrix(1.00, 0.00, -0.00, -1.00, 663.3, 12.0)">e</text><text xml:space="preserve" font-family="Helvetica-Light" font-size="53.6" fill="#000000" transform="matrix(1.00, 0.00, -0.00, -1.00, 693.1, 12.0)">w</text><text xml:space="preserve" font-family="Helvetica-Light" font-size="53.6" fill="#000000" transform="matrix(1.00, 0.00, -0.00, -1.00, 731.8, 12.0)">o</text><text xml:space="preserve" font-family="Helvetica-Light" font-size="53.6" fill="#000000" transform="matrix(1.00, 0.00, -0.00, -1.00, 761.6, 12.0)">r</text><text xml:space="preserve" font-family="Helvetica-Light" font-size="53.6" fill="#000000" transform="matrix(1.00, 0.00, -0.00, -1.00, 779.5, 12.0)">k</text></g></svg>