<?xml version="1.0" encoding="UTF-8" standalone="no"?><svg xmlns="http://www.w3.org/2000/svg" xmlns:xlink="http://www.w3.org/1999/xlink" clip-rule="evenodd" stroke-miterlimit="4.00" viewBox="0 0 1024 768"><desc>SVG generated by Keynote</desc><defs></defs><g transform="matrix(1.00, 0.00, -0.00, -1.00, 0.0, 768.0)"><path d="M 0.0 768.0 L 1024.0 768.0 L 1024.0 0.0 L 0.0 0.0 Z M 0.0 768.0 " fill="#FEFFFF"></path><g><clipPath id="clip-72"><path d="M 127.0 718.0 L 897.0 718.0 L 897.0 252.0 L 127.0 252.0 Z M 126.5 718.0 "></path></clipPath><g clip-path="url(#clip-72)"><image xlink:href="977EFDC7CC04BE07B1D2A0148070264D.png" width="541.00" height="541.00" transform="matrix(1.42, 0.00, -0.00, -1.42, 127.0, 870.0)"></image></g></g><text xml:space="preserve" font-family="Helvetica-Light" font-size="43.2" fill="#000000" transform="matrix(1.00, 0.00, -0.00, -1.00, 152.0, 193.0)">A</text><text xml:space="preserve" font-family="Helvetica-Light" font-size="43.2" fill="#000000" transform="matrix(1.00, 0.00, -0.00, -1.00, 180.8, 193.0)">n</text><text xml:space="preserve" font-family="Helvetica-Light" font-size="43.2" fill="#000000" transform="matrix(1.00, 0.00, -0.00, -1.00, 204.8, 193.0)">d</text><text xml:space="preserve" font-family="Helvetica-Light" font-size="43.2" fill="#000000" transform="matrix(1.00, 0.00, -0.00, -1.00, 231.2, 193.0)"> </text><text xml:space="preserve" font-family="Helvetica-Light" font-size="43.2" fill="#000000" transform="matrix(1.00, 0.00, -0.00, -1.00, 243.2, 193.0)">d</text><text xml:space="preserve" font-family="Helvetica-Light" font-size="43.2" fill="#000000" transform="matrix(1.00, 0.00, -0.00, -1.00, 269.6, 193.0)">e</text><text xml:space="preserve" font-family="Helvetica-Light" font-size="43.2" fill="#000000" transform="matrix(1.00, 0.00, -0.00, -1.00, 293.7, 193.0)">c</text><text xml:space="preserve" font-family="Helvetica-Light" font-size="43.2" fill="#000000" transform="matrix(1.00, 0.00, -0.00, -1.00, 317.7, 193.0)">i</text><text xml:space="preserve" font-family="Helvetica-Light" font-size="43.2" fill="#000000" transform="matrix(1.00, 0.00, -0.00, -1.00, 327.3, 193.0)">d</text><text xml:space="preserve" font-family="Helvetica-Light" font-size="43.2" fill="#000000" transform="matrix(1.00, 0.00, -0.00, -1.00, 353.7, 193.0)">e</text><text xml:space="preserve" font-family="Helvetica-Light" font-size="43.2" fill="#000000" transform="matrix(1.00, 0.00, -0.00, -1.00, 377.7, 193.0)">s</text><text xml:space="preserve" font-family="Helvetica-Light" font-size="43.2" fill="#000000" transform="matrix(1.00, 0.00, -0.00, -1.00, 399.3, 193.0)"> </text><text xml:space="preserve" font-family="Helvetica-Light" font-size="43.2" fill="#000000" transform="matrix(1.00, 0.00, -0.00, -1.00, 411.3, 193.0)">t</text><text xml:space="preserve" font-family="Helvetica-Light" font-size="43.2" fill="#000000" transform="matrix(1.00, 0.00, -0.00, -1.00, 423.3, 193.0)">o</text><text xml:space="preserve" font-family="Helvetica-Light" font-size="43.2" fill="#000000" transform="matrix(1.00, 0.00, -0.00, -1.00, 447.3, 193.0)"> </text><text xml:space="preserve" font-family="Helvetica-Light" font-size="43.2" fill="#000000" transform="matrix(1.00, 0.00, -0.00, -1.00, 459.3, 193.0)">j</text><text xml:space="preserve" font-family="Helvetica-Light" font-size="43.2" fill="#000000" transform="matrix(1.00, 0.00, -0.00, -1.00, 468.9, 193.0)">o</text><text xml:space="preserve" font-family="Helvetica-Light" font-size="43.2" fill="#000000" transform="matrix(1.00, 0.00, -0.00, -1.00, 492.9, 193.0)">i</text><text xml:space="preserve" font-family="Helvetica-Light" font-size="43.2" fill="#000000" transform="matrix(1.00, 0.00, -0.00, -1.00, 502.5, 193.0)">n</text><text xml:space="preserve" font-family="Helvetica-Light" font-size="43.2" fill="#000000" transform="matrix(1.00, 0.00, -0.00, -1.00, 526.5, 193.0)"> </text><text xml:space="preserve" font-family="Helvetica-Light" font-size="43.2" fill="#000000" transform="matrix(1.00, 0.00, -0.00, -1.00, 538.6, 193.0)">t</text><text xml:space="preserve" font-family="Helvetica-Light" font-size="43.2" fill="#000000" transform="matrix(1.00, 0.00, -0.00, -1.00, 550.6, 193.0)">h</text><text xml:space="preserve" font-family="Helvetica-Light" font-size="43.2" fill="#000000" transform="matrix(1.00, 0.00, -0.00, -1.00, 574.6, 193.0)">e</text><text xml:space="preserve" font-family="Helvetica-Light" font-size="43.2" fill="#000000" transform="matrix(1.00, 0.00, -0.00, -1.00, 598.6, 193.0)"> </text><text xml:space="preserve" font-family="Helvetica-Light" font-size="43.2" fill="#000000" transform="matrix(1.00, 0.00, -0.00, -1.00, 610.6, 193.0)">J</text><text xml:space="preserve" font-family="Helvetica-Light" font-size="43.2" fill="#000000" transform="matrix(1.00, 0.00, -0.00, -1.00, 632.2, 193.0)">V</text><text xml:space="preserve" font-family="Helvetica-Light" font-size="43.2" fill="#000000" transform="matrix(1.00, 0.00, -0.00, -1.00, 658.6, 193.0)">M</text><text xml:space="preserve" font-family="Helvetica-Light" font-size="43.2" fill="#000000" transform="matrix(1.00, 0.00, -0.00, -1.00, 694.6, 193.0)"> </text><text xml:space="preserve" font-family="Helvetica-Light" font-size="43.2" fill="#000000" transform="matrix(1.00, 0.00, -0.00, -1.00, 706.6, 193.0)">S</text><text xml:space="preserve" font-family="Helvetica-Light" font-size="43.2" fill="#000000" transform="matrix(1.00, 0.00, -0.00, -1.00, 733.0, 193.0)">e</text><text xml:space="preserve" font-family="Helvetica-Light" font-size="43.2" fill="#000000" transform="matrix(1.00, 0.00, -0.00, -1.00, 757.0, 193.0)">r</text><text xml:space="preserve" font-family="Helvetica-Light" font-size="43.2" fill="#000000" transform="matrix(1.00, 0.00, -0.00, -1.00, 771.4, 193.0)">v</text><text xml:space="preserve" font-family="Helvetica-Light" font-size="43.2" fill="#000000" transform="matrix(1.00, 0.00, -0.00, -1.00, 793.0, 193.0)">i</text><text xml:space="preserve" font-family="Helvetica-Light" font-size="43.2" fill="#000000" transform="matrix(1.00, 0.00, -0.00, -1.00, 802.6, 193.0)">c</text><text xml:space="preserve" font-family="Helvetica-Light" font-size="43.2" fill="#000000" transform="matrix(1.00, 0.00, -0.00, -1.00, 826.6, 193.0)">e</text><text xml:space="preserve" font-family="Helvetica-Light" font-size="43.2" fill="#000000" transform="matrix(1.00, 0.00, -0.00, -1.00, 850.6, 193.0)">s</text><text xml:space="preserve" font-family="Helvetica-Light" font-size="43.2" fill="#000000" transform="matrix(1.00, 0.00, -0.00, -1.00, 872.2, 193.0)"> </text><text xml:space="preserve" font-family="Helvetica-Light" font-size="43.2" fill="#000000" transform="matrix(1.00, 0.00, -0.00, -1.00, 460.0, 141.0)">T</text><text xml:space="preserve" font-family="Helvetica-Light" font-size="43.2" fill="#000000" transform="matrix(1.00, 0.00, -0.00, -1.00, 479.2, 141.0)">e</text><text xml:space="preserve" font-family="Helvetica-Light" font-size="43.2" fill="#000000" transform="matrix(1.00, 0.00, -0.00, -1.00, 503.2, 141.0)">a</text><text xml:space="preserve" font-family="Helvetica-Light" font-size="43.2" fill="#000000" transform="matrix(1.00, 0.00, -0.00, -1.00, 527.3, 141.0)">m</text></g></svg>