<?xml version="1.0" encoding="UTF-8" standalone="no"?><svg xmlns="http://www.w3.org/2000/svg" xmlns:xlink="http://www.w3.org/1999/xlink" clip-rule="evenodd" stroke-miterlimit="4.00" viewBox="0 0 1024 768"><desc>SVG generated by Keynote</desc><defs></defs><g transform="matrix(1.00, 0.00, -0.00, -1.00, 0.0, 768.0)"><path d="M 0.0 768.0 L 1024.0 768.0 L 1024.0 0.0 L 0.0 0.0 Z M 0.0 768.0 " fill="#FEFFFF"></path><text xml:space="preserve" font-family="Helvetica-Light" font-size="70.4" fill="#000000" transform="matrix(1.00, 0.00, -0.00, -1.00, 228.0, 442.0)">A</text><text xml:space="preserve" font-family="Helvetica-Light" font-size="70.4" fill="#000000" transform="matrix(1.00, 0.00, -0.00, -1.00, 275.0, 442.0)"> </text><text xml:space="preserve" font-family="Helvetica-Light" font-size="70.4" fill="#000000" transform="matrix(1.00, 0.00, -0.00, -1.00, 294.5, 442.0)">w</text><text xml:space="preserve" font-family="Helvetica-Light" font-size="70.4" fill="#000000" transform="matrix(1.00, 0.00, -0.00, -1.00, 345.4, 442.0)">e</text><text xml:space="preserve" font-family="Helvetica-Light" font-size="70.4" fill="#000000" transform="matrix(1.00, 0.00, -0.00, -1.00, 384.5, 442.0)">e</text><text xml:space="preserve" font-family="Helvetica-Light" font-size="70.4" fill="#000000" transform="matrix(1.00, 0.00, -0.00, -1.00, 423.6, 442.0)">k</text><text xml:space="preserve" font-family="Helvetica-Light" font-size="70.4" fill="#000000" transform="matrix(1.00, 0.00, -0.00, -1.00, 458.8, 442.0)"> </text><text xml:space="preserve" font-family="Helvetica-Light" font-size="70.4" fill="#000000" transform="matrix(1.00, 0.00, -0.00, -1.00, 478.4, 442.0)">l</text><text xml:space="preserve" font-family="Helvetica-Light" font-size="70.4" fill="#000000" transform="matrix(1.00, 0.00, -0.00, -1.00, 494.0, 442.0)">a</text><text xml:space="preserve" font-family="Helvetica-Light" font-size="70.4" fill="#000000" transform="matrix(1.00, 0.00, -0.00, -1.00, 533.2, 442.0)">t</text><text xml:space="preserve" font-family="Helvetica-Light" font-size="70.4" fill="#000000" transform="matrix(1.00, 0.00, -0.00, -1.00, 552.8, 442.0)">e</text><text xml:space="preserve" font-family="Helvetica-Light" font-size="70.4" fill="#000000" transform="matrix(1.00, 0.00, -0.00, -1.00, 591.9, 442.0)">r</text><text xml:space="preserve" font-family="Helvetica-Light" font-size="70.4" fill="#000000" transform="matrix(1.00, 0.00, -0.00, -1.00, 608.9, 442.0)">,</text><text xml:space="preserve" font-family="Helvetica-Light" font-size="70.4" fill="#000000" transform="matrix(1.00, 0.00, -0.00, -1.00, 628.4, 442.0)"> </text><text xml:space="preserve" font-family="Helvetica-Light" font-size="70.4" fill="#000000" transform="matrix(1.00, 0.00, -0.00, -1.00, 648.0, 442.0)">S</text><text xml:space="preserve" font-family="Helvetica-Light" font-size="70.4" fill="#000000" transform="matrix(1.00, 0.00, -0.00, -1.00, 691.0, 442.0)">a</text><text xml:space="preserve" font-family="Helvetica-Light" font-size="70.4" fill="#000000" transform="matrix(1.00, 0.00, -0.00, -1.00, 730.2, 442.0)">l</text><text xml:space="preserve" font-family="Helvetica-Light" font-size="70.4" fill="#000000" transform="matrix(1.00, 0.00, -0.00, -1.00, 745.8, 442.0)">l</text><text xml:space="preserve" font-family="Helvetica-Light" font-size="70.4" fill="#000000" transform="matrix(1.00, 0.00, -0.00, -1.00, 761.4, 442.0)">y</text><text xml:space="preserve" font-family="Helvetica-Light" font-size="70.4" fill="#000000" transform="matrix(1.00, 0.00, -0.00, -1.00, 796.6, 442.0)"> </text><text xml:space="preserve" font-family="Helvetica-Light" font-size="70.4" fill="#000000" transform="matrix(1.00, 0.00, -0.00, -1.00, 176.0, 358.0)">a</text><text xml:space="preserve" font-family="Helvetica-Light" font-size="70.4" fill="#000000" transform="matrix(1.00, 0.00, -0.00, -1.00, 215.1, 358.0)">t</text><text xml:space="preserve" font-family="Helvetica-Light" font-size="70.4" fill="#000000" transform="matrix(1.00, 0.00, -0.00, -1.00, 234.7, 358.0)">t</text><text xml:space="preserve" font-family="Helvetica-Light" font-size="70.4" fill="#000000" transform="matrix(1.00, 0.00, -0.00, -1.00, 254.3, 358.0)">e</text><text xml:space="preserve" font-family="Helvetica-Light" font-size="70.4" fill="#000000" transform="matrix(1.00, 0.00, -0.00, -1.00, 293.4, 358.0)">n</text><text xml:space="preserve" font-family="Helvetica-Light" font-size="70.4" fill="#000000" transform="matrix(1.00, 0.00, -0.00, -1.00, 332.6, 358.0)">d</text><text xml:space="preserve" font-family="Helvetica-Light" font-size="70.4" fill="#000000" transform="matrix(1.00, 0.00, -0.00, -1.00, 375.6, 358.0)">s</text><text xml:space="preserve" font-family="Helvetica-Light" font-size="70.4" fill="#000000" transform="matrix(1.00, 0.00, -0.00, -1.00, 410.8, 358.0)"> </text><text xml:space="preserve" font-family="Helvetica-Light" font-size="70.4" fill="#000000" transform="matrix(1.00, 0.00, -0.00, -1.00, 430.4, 358.0)">h</text><text xml:space="preserve" font-family="Helvetica-Light" font-size="70.4" fill="#000000" transform="matrix(1.00, 0.00, -0.00, -1.00, 469.5, 358.0)">e</text><text xml:space="preserve" font-family="Helvetica-Light" font-size="70.4" fill="#000000" transform="matrix(1.00, 0.00, -0.00, -1.00, 508.6, 358.0)">r</text><text xml:space="preserve" font-family="Helvetica-Light" font-size="70.4" fill="#000000" transform="matrix(1.00, 0.00, -0.00, -1.00, 532.1, 358.0)"> </text><text xml:space="preserve" font-family="Helvetica-Light" font-size="70.4" fill="#000000" transform="matrix(1.00, 0.00, -0.00, -1.00, 551.7, 358.0)">1</text><text xml:space="preserve" font-family="Helvetica-Light" font-size="70.4" fill="#000000" transform="matrix(1.00, 0.00, -0.00, -1.00, 590.8, 358.0)">s</text><text xml:space="preserve" font-family="Helvetica-Light" font-size="70.4" fill="#000000" transform="matrix(1.00, 0.00, -0.00, -1.00, 626.0, 358.0)">t</text><text xml:space="preserve" font-family="Helvetica-Light" font-size="70.4" fill="#000000" transform="matrix(1.00, 0.00, -0.00, -1.00, 645.6, 358.0)"> </text><text xml:space="preserve" font-family="Helvetica-Light" font-size="70.4" fill="#000000" transform="matrix(1.00, 0.00, -0.00, -1.00, 665.1, 358.0)">S</text><text xml:space="preserve" font-family="Helvetica-Light" font-size="70.4" fill="#000000" transform="matrix(1.00, 0.00, -0.00, -1.00, 708.2, 358.0)">p</text><text xml:space="preserve" font-family="Helvetica-Light" font-size="70.4" fill="#000000" transform="matrix(1.00, 0.00, -0.00, -1.00, 751.2, 358.0)">r</text><text xml:space="preserve" font-family="Helvetica-Light" font-size="70.4" fill="#000000" transform="matrix(1.00, 0.00, -0.00, -1.00, 774.6, 358.0)">i</text><text xml:space="preserve" font-family="Helvetica-Light" font-size="70.4" fill="#000000" transform="matrix(1.00, 0.00, -0.00, -1.00, 790.2, 358.0)">n</text><text xml:space="preserve" font-family="Helvetica-Light" font-size="70.4" fill="#000000" transform="matrix(1.00, 0.00, -0.00, -1.00, 829.4, 358.0)">t</text><text xml:space="preserve" font-family="Helvetica-Light" font-size="70.4" fill="#000000" transform="matrix(1.00, 0.00, -0.00, -1.00, 849.0, 358.0)"> </text><text xml:space="preserve" font-family="Helvetica-Light" font-size="70.4" fill="#000000" transform="matrix(1.00, 0.00, -0.00, -1.00, 399.0, 274.0)">R</text><text xml:space="preserve" font-family="Helvetica-Light" font-size="70.4" fill="#000000" transform="matrix(1.00, 0.00, -0.00, -1.00, 446.0, 274.0)">e</text><text xml:space="preserve" font-family="Helvetica-Light" font-size="70.4" fill="#000000" transform="matrix(1.00, 0.00, -0.00, -1.00, 485.1, 274.0)">v</text><text xml:space="preserve" font-family="Helvetica-Light" font-size="70.4" fill="#000000" transform="matrix(1.00, 0.00, -0.00, -1.00, 520.3, 274.0)">i</text><text xml:space="preserve" font-family="Helvetica-Light" font-size="70.4" fill="#000000" transform="matrix(1.00, 0.00, -0.00, -1.00, 535.9, 274.0)">e</text><text xml:space="preserve" font-family="Helvetica-Light" font-size="70.4" fill="#000000" transform="matrix(1.00, 0.00, -0.00, -1.00, 575.1, 274.0)">w</text></g></svg>