<?xml version="1.0" encoding="UTF-8" standalone="no"?><svg xmlns="http://www.w3.org/2000/svg" xmlns:xlink="http://www.w3.org/1999/xlink" clip-rule="evenodd" stroke-miterlimit="4.00" viewBox="0 0 1024 768"><desc>SVG generated by Keynote</desc><defs></defs><g transform="matrix(1.00, 0.00, -0.00, -1.00, 0.0, 768.0)"><path d="M 0.0 768.0 L 1024.0 768.0 L 1024.0 0.0 L 0.0 0.0 Z M 0.0 768.0 " fill="#FEFFFF"></path><g><clipPath id="clip-70"><path d="M 215.0 763.0 L 809.0 763.0 L 809.0 193.0 L 215.0 193.0 Z M 214.7 763.3 "></path></clipPath><g clip-path="url(#clip-70)"><image xlink:href="F724DEED11B1407C126D257E65B2AD2D.png" width="400.00" height="400.00" transform="matrix(1.43, 0.00, -0.00, -1.43, 227.0, 753.0)"></image></g></g><text xml:space="preserve" font-family="Helvetica-Light" font-size="43.2" fill="#000000" transform="matrix(1.00, 0.00, -0.00, -1.00, 173.0, 134.0)">S</text><text xml:space="preserve" font-family="Helvetica-Light" font-size="43.2" fill="#000000" transform="matrix(1.00, 0.00, -0.00, -1.00, 199.4, 134.0)">a</text><text xml:space="preserve" font-family="Helvetica-Light" font-size="43.2" fill="#000000" transform="matrix(1.00, 0.00, -0.00, -1.00, 223.4, 134.0)">l</text><text xml:space="preserve" font-family="Helvetica-Light" font-size="43.2" fill="#000000" transform="matrix(1.00, 0.00, -0.00, -1.00, 233.0, 134.0)">l</text><text xml:space="preserve" font-family="Helvetica-Light" font-size="43.2" fill="#000000" transform="matrix(1.00, 0.00, -0.00, -1.00, 242.6, 134.0)">y</text><text xml:space="preserve" font-family="Helvetica-Light" font-size="43.2" fill="#000000" transform="matrix(1.00, 0.00, -0.00, -1.00, 264.2, 134.0)"> </text><text xml:space="preserve" font-family="Helvetica-Light" font-size="43.2" fill="#000000" transform="matrix(1.00, 0.00, -0.00, -1.00, 276.2, 134.0)">c</text><text xml:space="preserve" font-family="Helvetica-Light" font-size="43.2" fill="#000000" transform="matrix(1.00, 0.00, -0.00, -1.00, 300.2, 134.0)">h</text><text xml:space="preserve" font-family="Helvetica-Light" font-size="43.2" fill="#000000" transform="matrix(1.00, 0.00, -0.00, -1.00, 324.2, 134.0)">o</text><text xml:space="preserve" font-family="Helvetica-Light" font-size="43.2" fill="#000000" transform="matrix(1.00, 0.00, -0.00, -1.00, 348.3, 134.0)">o</text><text xml:space="preserve" font-family="Helvetica-Light" font-size="43.2" fill="#000000" transform="matrix(1.00, 0.00, -0.00, -1.00, 372.3, 134.0)">s</text><text xml:space="preserve" font-family="Helvetica-Light" font-size="43.2" fill="#000000" transform="matrix(1.00, 0.00, -0.00, -1.00, 393.9, 134.0)">e</text><text xml:space="preserve" font-family="Helvetica-Light" font-size="43.2" fill="#000000" transform="matrix(1.00, 0.00, -0.00, -1.00, 417.9, 134.0)">s</text><text xml:space="preserve" font-family="Helvetica-Light" font-size="43.2" fill="#000000" transform="matrix(1.00, 0.00, -0.00, -1.00, 439.5, 134.0)"> </text><text xml:space="preserve" font-family="Helvetica-Light" font-size="43.2" fill="#000000" transform="matrix(1.00, 0.00, -0.00, -1.00, 451.5, 134.0)">t</text><text xml:space="preserve" font-family="Helvetica-Light" font-size="43.2" fill="#000000" transform="matrix(1.00, 0.00, -0.00, -1.00, 463.5, 134.0)">o</text><text xml:space="preserve" font-family="Helvetica-Light" font-size="43.2" fill="#000000" transform="matrix(1.00, 0.00, -0.00, -1.00, 487.5, 134.0)"> </text><text xml:space="preserve" font-family="Helvetica-Light" font-size="43.2" fill="#000000" transform="matrix(1.00, 0.00, -0.00, -1.00, 499.5, 134.0)">j</text><text xml:space="preserve" font-family="Helvetica-Light" font-size="43.2" fill="#000000" transform="matrix(1.00, 0.00, -0.00, -1.00, 509.1, 134.0)">o</text><text xml:space="preserve" font-family="Helvetica-Light" font-size="43.2" fill="#000000" transform="matrix(1.00, 0.00, -0.00, -1.00, 533.2, 134.0)">i</text><text xml:space="preserve" font-family="Helvetica-Light" font-size="43.2" fill="#000000" transform="matrix(1.00, 0.00, -0.00, -1.00, 542.7, 134.0)">n</text><text xml:space="preserve" font-family="Helvetica-Light" font-size="43.2" fill="#000000" transform="matrix(1.00, 0.00, -0.00, -1.00, 566.8, 134.0)"> </text><text xml:space="preserve" font-family="Helvetica-Light" font-size="43.2" fill="#000000" transform="matrix(1.00, 0.00, -0.00, -1.00, 578.8, 134.0)">t</text><text xml:space="preserve" font-family="Helvetica-Light" font-size="43.2" fill="#000000" transform="matrix(1.00, 0.00, -0.00, -1.00, 590.8, 134.0)">h</text><text xml:space="preserve" font-family="Helvetica-Light" font-size="43.2" fill="#000000" transform="matrix(1.00, 0.00, -0.00, -1.00, 614.8, 134.0)">e</text><text xml:space="preserve" font-family="Helvetica-Light" font-size="43.2" fill="#000000" transform="matrix(1.00, 0.00, -0.00, -1.00, 638.8, 134.0)"> </text><text xml:space="preserve" font-family="Helvetica-Light" font-size="43.2" fill="#000000" transform="matrix(1.00, 0.00, -0.00, -1.00, 650.8, 134.0)">J</text><text xml:space="preserve" font-family="Helvetica-Light" font-size="43.2" fill="#000000" transform="matrix(1.00, 0.00, -0.00, -1.00, 672.4, 134.0)">a</text><text xml:space="preserve" font-family="Helvetica-Light" font-size="43.2" fill="#000000" transform="matrix(1.00, 0.00, -0.00, -1.00, 696.5, 134.0)">v</text><text xml:space="preserve" font-family="Helvetica-Light" font-size="43.2" fill="#000000" transform="matrix(1.00, 0.00, -0.00, -1.00, 718.1, 134.0)">a</text><text xml:space="preserve" font-family="Helvetica-Light" font-size="43.2" fill="#000000" transform="matrix(1.00, 0.00, -0.00, -1.00, 742.1, 134.0)">s</text><text xml:space="preserve" font-family="Helvetica-Light" font-size="43.2" fill="#000000" transform="matrix(1.00, 0.00, -0.00, -1.00, 763.7, 134.0)">c</text><text xml:space="preserve" font-family="Helvetica-Light" font-size="43.2" fill="#000000" transform="matrix(1.00, 0.00, -0.00, -1.00, 787.7, 134.0)">r</text><text xml:space="preserve" font-family="Helvetica-Light" font-size="43.2" fill="#000000" transform="matrix(1.00, 0.00, -0.00, -1.00, 802.1, 134.0)">i</text><text xml:space="preserve" font-family="Helvetica-Light" font-size="43.2" fill="#000000" transform="matrix(1.00, 0.00, -0.00, -1.00, 811.7, 134.0)">p</text><text xml:space="preserve" font-family="Helvetica-Light" font-size="43.2" fill="#000000" transform="matrix(1.00, 0.00, -0.00, -1.00, 838.1, 134.0)">t</text><text xml:space="preserve" font-family="Helvetica-Light" font-size="43.2" fill="#000000" transform="matrix(1.00, 0.00, -0.00, -1.00, 850.1, 134.0)"> </text><text xml:space="preserve" font-family="Helvetica-Light" font-size="43.2" fill="#000000" transform="matrix(1.00, 0.00, -0.00, -1.00, 372.0, 82.0)">S</text><text xml:space="preserve" font-family="Helvetica-Light" font-size="43.2" fill="#000000" transform="matrix(1.00, 0.00, -0.00, -1.00, 398.4, 82.0)">e</text><text xml:space="preserve" font-family="Helvetica-Light" font-size="43.2" fill="#000000" transform="matrix(1.00, 0.00, -0.00, -1.00, 422.4, 82.0)">r</text><text xml:space="preserve" font-family="Helvetica-Light" font-size="43.2" fill="#000000" transform="matrix(1.00, 0.00, -0.00, -1.00, 436.8, 82.0)">v</text><text xml:space="preserve" font-family="Helvetica-Light" font-size="43.2" fill="#000000" transform="matrix(1.00, 0.00, -0.00, -1.00, 458.4, 82.0)">i</text><text xml:space="preserve" font-family="Helvetica-Light" font-size="43.2" fill="#000000" transform="matrix(1.00, 0.00, -0.00, -1.00, 468.0, 82.0)">c</text><text xml:space="preserve" font-family="Helvetica-Light" font-size="43.2" fill="#000000" transform="matrix(1.00, 0.00, -0.00, -1.00, 492.0, 82.0)">e</text><text xml:space="preserve" font-family="Helvetica-Light" font-size="43.2" fill="#000000" transform="matrix(1.00, 0.00, -0.00, -1.00, 516.0, 82.0)">s</text><text xml:space="preserve" font-family="Helvetica-Light" font-size="43.2" fill="#000000" transform="matrix(1.00, 0.00, -0.00, -1.00, 537.6, 82.0)"> </text><text xml:space="preserve" font-family="Helvetica-Light" font-size="43.2" fill="#000000" transform="matrix(1.00, 0.00, -0.00, -1.00, 549.6, 82.0)">T</text><text xml:space="preserve" font-family="Helvetica-Light" font-size="43.2" fill="#000000" transform="matrix(1.00, 0.00, -0.00, -1.00, 568.9, 82.0)">e</text><text xml:space="preserve" font-family="Helvetica-Light" font-size="43.2" fill="#000000" transform="matrix(1.00, 0.00, -0.00, -1.00, 592.9, 82.0)">a</text><text xml:space="preserve" font-family="Helvetica-Light" font-size="43.2" fill="#000000" transform="matrix(1.00, 0.00, -0.00, -1.00, 616.9, 82.0)">m</text></g></svg>