<?xml version="1.0" encoding="UTF-8" standalone="no"?><svg xmlns="http://www.w3.org/2000/svg" xmlns:xlink="http://www.w3.org/1999/xlink" clip-rule="evenodd" stroke-miterlimit="4.00" viewBox="0 0 336 53"><desc>SVG generated by Keynote</desc><defs></defs><g transform="matrix(1.00, 0.00, -0.00, -1.00, 0.0, 53.0)"><text xml:space="preserve" font-family="Helvetica-Light" font-size="22.7" fill="#000000" transform="matrix(1.00, 0.00, -0.00, -1.00, 1.0, 32.0)">*</text><text xml:space="preserve" font-family="Helvetica-Light" font-size="22.7" fill="#000000" transform="matrix(1.00, 0.00, -0.00, -1.00, 9.8, 32.0)">N</text><text xml:space="preserve" font-family="Helvetica-Light" font-size="22.7" fill="#000000" transform="matrix(1.00, 0.00, -0.00, -1.00, 26.2, 32.0)">o</text><text xml:space="preserve" font-family="Helvetica-Light" font-size="22.7" fill="#000000" transform="matrix(1.00, 0.00, -0.00, -1.00, 38.9, 32.0)">t</text><text xml:space="preserve" font-family="Helvetica-Light" font-size="22.7" fill="#000000" transform="matrix(1.00, 0.00, -0.00, -1.00, 45.2, 32.0)"> </text><text xml:space="preserve" font-family="Helvetica-Light" font-size="22.7" fill="#000000" transform="matrix(1.00, 0.00, -0.00, -1.00, 51.5, 32.0)">a</text><text xml:space="preserve" font-family="Helvetica-Light" font-size="22.7" fill="#000000" transform="matrix(1.00, 0.00, -0.00, -1.00, 64.1, 32.0)">f</text><text xml:space="preserve" font-family="Helvetica-Light" font-size="22.7" fill="#000000" transform="matrix(1.00, 0.00, -0.00, -1.00, 70.0, 32.0)">ï¬</text><text xml:space="preserve" font-family="Helvetica-Light" font-size="22.7" fill="#000000" transform="matrix(1.00, 0.00, -0.00, -1.00, 81.4, 32.0)">l</text><text xml:space="preserve" font-family="Helvetica-Light" font-size="22.7" fill="#000000" transform="matrix(1.00, 0.00, -0.00, -1.00, 86.4, 32.0)">i</text><text xml:space="preserve" font-family="Helvetica-Light" font-size="22.7" fill="#000000" transform="matrix(1.00, 0.00, -0.00, -1.00, 91.5, 32.0)">a</text><text xml:space="preserve" font-family="Helvetica-Light" font-size="22.7" fill="#000000" transform="matrix(1.00, 0.00, -0.00, -1.00, 104.1, 32.0)">t</text><text xml:space="preserve" font-family="Helvetica-Light" font-size="22.7" fill="#000000" transform="matrix(1.00, 0.00, -0.00, -1.00, 110.4, 32.0)">e</text><text xml:space="preserve" font-family="Helvetica-Light" font-size="22.7" fill="#000000" transform="matrix(1.00, 0.00, -0.00, -1.00, 123.1, 32.0)">d</text><text xml:space="preserve" font-family="Helvetica-Light" font-size="22.7" fill="#000000" transform="matrix(1.00, 0.00, -0.00, -1.00, 137.0, 32.0)"> </text><text xml:space="preserve" font-family="Helvetica-Light" font-size="22.7" fill="#000000" transform="matrix(1.00, 0.00, -0.00, -1.00, 143.3, 32.0)">w</text><text xml:space="preserve" font-family="Helvetica-Light" font-size="22.7" fill="#000000" transform="matrix(1.00, 0.00, -0.00, -1.00, 159.7, 32.0)">i</text><text xml:space="preserve" font-family="Helvetica-Light" font-size="22.7" fill="#000000" transform="matrix(1.00, 0.00, -0.00, -1.00, 164.7, 32.0)">t</text><text xml:space="preserve" font-family="Helvetica-Light" font-size="22.7" fill="#000000" transform="matrix(1.00, 0.00, -0.00, -1.00, 171.0, 32.0)">h</text><text xml:space="preserve" font-family="Helvetica-Light" font-size="22.7" fill="#000000" transform="matrix(1.00, 0.00, -0.00, -1.00, 183.7, 32.0)"> </text><text xml:space="preserve" font-family="Helvetica-Light" font-size="22.7" fill="#000000" transform="matrix(1.00, 0.00, -0.00, -1.00, 190.0, 32.0)">o</text><text xml:space="preserve" font-family="Helvetica-Light" font-size="22.7" fill="#000000" transform="matrix(1.00, 0.00, -0.00, -1.00, 202.6, 32.0)">p</text><text xml:space="preserve" font-family="Helvetica-Light" font-size="22.7" fill="#000000" transform="matrix(1.00, 0.00, -0.00, -1.00, 216.5, 32.0)">s</text><text xml:space="preserve" font-family="Helvetica-Light" font-size="22.7" fill="#000000" transform="matrix(1.00, 0.00, -0.00, -1.00, 227.9, 32.0)">g</text><text xml:space="preserve" font-family="Helvetica-Light" font-size="22.7" fill="#000000" transform="matrix(1.00, 0.00, -0.00, -1.00, 241.7, 32.0)">e</text><text xml:space="preserve" font-family="Helvetica-Light" font-size="22.7" fill="#000000" transform="matrix(1.00, 0.00, -0.00, -1.00, 254.4, 32.0)">n</text><text xml:space="preserve" font-family="Helvetica-Light" font-size="22.7" fill="#000000" transform="matrix(1.00, 0.00, -0.00, -1.00, 267.0, 32.0)">i</text><text xml:space="preserve" font-family="Helvetica-Light" font-size="22.7" fill="#000000" transform="matrix(1.00, 0.00, -0.00, -1.00, 272.0, 32.0)">e</text><text xml:space="preserve" font-family="Helvetica-Light" font-size="22.7" fill="#000000" transform="matrix(1.00, 0.00, -0.00, -1.00, 284.7, 32.0)">.</text><text xml:space="preserve" font-family="Helvetica-Light" font-size="22.7" fill="#000000" transform="matrix(1.00, 0.00, -0.00, -1.00, 291.0, 32.0)">c</text><text xml:space="preserve" font-family="Helvetica-Light" font-size="22.7" fill="#000000" transform="matrix(1.00, 0.00, -0.00, -1.00, 303.6, 32.0)">o</text><text xml:space="preserve" font-family="Helvetica-Light" font-size="22.7" fill="#000000" transform="matrix(1.00, 0.00, -0.00, -1.00, 316.3, 32.0)">m</text><text xml:space="preserve" font-family="Helvetica-Light" font-size="22.7" fill="#000000" transform="matrix(1.00, 0.00, -0.00, -1.00, 335.2, 32.0)"> </text><g><clipPath id="clip-88"><path d="M 188.9 29.0 L 335.1 29.0 L 335.1 32.1 L 188.9 32.1 Z M 188.9 29.0 "></path></clipPath><g clip-path="url(#clip-88)"><path d="M 433.9 26.5 L 579.1 26.5 " fill="none" stroke="#000000" stroke-width="1.14" stroke-miterlimit="0.00" transform="matrix(1.00, 0.00, 0.00, -1.00, -244.0, 57.0)"></path></g></g><text xml:space="preserve" font-family="Helvetica-Light" font-size="22.7" fill="#000000" transform="matrix(1.00, 0.00, -0.00, -1.00, 3.0, 6.0)">*</text><text xml:space="preserve" font-family="Helvetica-Light" font-size="22.7" fill="#000000" transform="matrix(1.00, 0.00, -0.00, -1.00, 11.8, 6.0)">*</text><text xml:space="preserve" font-family="Helvetica-Light" font-size="22.7" fill="#000000" transform="matrix(1.00, 0.00, -0.00, -1.00, 20.7, 6.0)"> </text><text xml:space="preserve" font-family="Helvetica-Light" font-size="22.7" fill="#000000" transform="matrix(1.00, 0.00, -0.00, -1.00, 27.0, 6.0)">F</text><text xml:space="preserve" font-family="Helvetica-Light" font-size="22.7" fill="#000000" transform="matrix(1.00, 0.00, -0.00, -1.00, 39.6, 6.0)">i</text><text xml:space="preserve" font-family="Helvetica-Light" font-size="22.7" fill="#000000" transform="matrix(1.00, 0.00, -0.00, -1.00, 44.7, 6.0)">l</text><text xml:space="preserve" font-family="Helvetica-Light" font-size="22.7" fill="#000000" transform="matrix(1.00, 0.00, -0.00, -1.00, 49.7, 6.0)">i</text><text xml:space="preserve" font-family="Helvetica-Light" font-size="22.7" fill="#000000" transform="matrix(1.00, 0.00, -0.00, -1.00, 54.8, 6.0)">p</text><text xml:space="preserve" font-family="Helvetica-Light" font-size="22.7" fill="#000000" transform="matrix(1.00, 0.00, -0.00, -1.00, 68.6, 6.0)"> </text><text xml:space="preserve" font-family="Helvetica-Light" font-size="22.7" fill="#000000" transform="matrix(1.00, 0.00, -0.00, -1.00, 75.0, 6.0)">S</text><text xml:space="preserve" font-family="Helvetica-Light" font-size="22.7" fill="#000000" transform="matrix(1.00, 0.00, -0.00, -1.00, 88.8, 6.0)">a</text><text xml:space="preserve" font-family="Helvetica-Light" font-size="22.7" fill="#000000" transform="matrix(1.00, 0.00, -0.00, -1.00, 101.5, 6.0)">l</text><text xml:space="preserve" font-family="Helvetica-Light" font-size="22.7" fill="#000000" transform="matrix(1.00, 0.00, -0.00, -1.00, 106.5, 6.0)">o</text><text xml:space="preserve" font-family="Helvetica-Light" font-size="22.7" fill="#000000" transform="matrix(1.00, 0.00, -0.00, -1.00, 119.1, 6.0)">m</text><text xml:space="preserve" font-family="Helvetica-Light" font-size="22.7" fill="#000000" transform="matrix(1.00, 0.00, -0.00, -1.00, 138.1, 6.0)">o</text><text xml:space="preserve" font-family="Helvetica-Light" font-size="22.7" fill="#000000" transform="matrix(1.00, 0.00, -0.00, -1.00, 150.7, 6.0)">n</text><text xml:space="preserve" font-family="Helvetica-Light" font-size="22.7" fill="#000000" transform="matrix(1.00, 0.00, -0.00, -1.00, 163.3, 6.0)">s</text><text xml:space="preserve" font-family="Helvetica-Light" font-size="22.7" fill="#000000" transform="matrix(1.00, 0.00, -0.00, -1.00, 174.7, 6.0)">s</text><text xml:space="preserve" font-family="Helvetica-Light" font-size="22.7" fill="#000000" transform="matrix(1.00, 0.00, -0.00, -1.00, 186.1, 6.0)">o</text><text xml:space="preserve" font-family="Helvetica-Light" font-size="22.7" fill="#000000" transform="matrix(1.00, 0.00, -0.00, -1.00, 198.7, 6.0)">n</text><text xml:space="preserve" font-family="Helvetica-Light" font-size="22.7" fill="#000000" transform="matrix(1.00, 0.00, -0.00, -1.00, 211.3, 6.0)"> </text><text xml:space="preserve" font-family="Helvetica-Light" font-size="22.7" fill="#000000" transform="matrix(1.00, 0.00, -0.00, -1.00, 217.6, 6.0)">o</text><text xml:space="preserve" font-family="Helvetica-Light" font-size="22.7" fill="#000000" transform="matrix(1.00, 0.00, -0.00, -1.00, 230.3, 6.0)">f</text><text xml:space="preserve" font-family="Helvetica-Light" font-size="22.7" fill="#000000" transform="matrix(1.00, 0.00, -0.00, -1.00, 236.6, 6.0)"> </text><text xml:space="preserve" font-family="Helvetica-Light" font-size="22.7" fill="#000000" transform="matrix(1.00, 0.00, -0.00, -1.00, 242.9, 6.0)">P</text><text xml:space="preserve" font-family="Helvetica-Light" font-size="22.7" fill="#000000" transform="matrix(1.00, 0.00, -0.00, -1.00, 256.8, 6.0)">i</text><text xml:space="preserve" font-family="Helvetica-Light" font-size="22.7" fill="#000000" transform="matrix(1.00, 0.00, -0.00, -1.00, 261.8, 6.0)">n</text><text xml:space="preserve" font-family="Helvetica-Light" font-size="22.7" fill="#000000" transform="matrix(1.00, 0.00, -0.00, -1.00, 274.5, 6.0)">g</text><text xml:space="preserve" font-family="Helvetica-Light" font-size="22.7" fill="#000000" transform="matrix(1.00, 0.00, -0.00, -1.00, 288.3, 6.0)">d</text><text xml:space="preserve" font-family="Helvetica-Light" font-size="22.7" fill="#000000" transform="matrix(1.00, 0.00, -0.00, -1.00, 302.2, 6.0)">o</text><text xml:space="preserve" font-family="Helvetica-Light" font-size="22.7" fill="#000000" transform="matrix(1.00, 0.00, -0.00, -1.00, 314.9, 6.0)">m</text><text xml:space="preserve" font-family="Helvetica-Light" font-size="22.7" fill="#000000" transform="matrix(1.00, 0.00, -0.00, -1.00, 333.8, 6.0)"> </text></g></svg>