<?xml version="1.0" encoding="UTF-8" standalone="no"?><svg xmlns="http://www.w3.org/2000/svg" xmlns:xlink="http://www.w3.org/1999/xlink" clip-rule="evenodd" stroke-miterlimit="4.00" viewBox="0 0 1024 768"><desc>SVG generated by Keynote</desc><defs></defs><g transform="matrix(1.00, 0.00, -0.00, -1.00, 0.0, 768.0)"><path d="M 0.0 768.0 L 1024.0 768.0 L 1024.0 0.0 L 0.0 0.0 Z M 0.0 768.0 " fill="#FEFFFF"></path><image xlink:href="../../824A5FD9-643B-4616-B690-2F8425CE0D10/assets/0FC029F9D44661C74402F28EDB87FC62.png" width="287.00" height="179.00" transform="matrix(1.00, 0.00, -0.00, -1.01, 740.0, 615.0)"></image><image xlink:href="../../824A5FD9-643B-4616-B690-2F8425CE0D10/assets/6CF7661931EE4557FA9598C826E191E3.png" width="120.00" height="148.00" transform="matrix(1.01, 0.00, -0.00, -1.00, 116.0, 690.0)"></image><image xlink:href="../../824A5FD9-643B-4616-B690-2F8425CE0D10/assets/86A38816DE5D2CB2A776A4AB326A04DA.png" width="254.00" height="169.00" transform="matrix(1.00, 0.00, -0.00, -1.00, 625.0, 740.0)"></image><image xlink:href="../../824A5FD9-643B-4616-B690-2F8425CE0D10/assets/42E6EF72DFE6B8AE5A93B0FCAAA92364.png" width="202.00" height="202.00" transform="matrix(1.00, 0.00, -0.00, -1.00, 535.0, 528.0)"></image><image xlink:href="../../824A5FD9-643B-4616-B690-2F8425CE0D10/assets/C66376E1C2228F54551DFDA70056E264.png" width="148.00" height="148.00" transform="matrix(0.99, 0.00, -0.00, -1.00, 728.0, 203.0)"></image><image xlink:href="../../824A5FD9-643B-4616-B690-2F8425CE0D10/assets/A8323B45C2E51B34F4722A50E171D262.png" width="573.00" height="511.00" transform="matrix(1.00, 0.00, -0.00, -1.00, -41.0, 477.0)"></image><image xlink:href="../../824A5FD9-643B-4616-B690-2F8425CE0D10/assets/FDF7AE5A0C68461DEBC5DD882BFC7CEA.png" width="172.00" height="169.00" transform="matrix(1.00, 0.00, -0.00, -1.00, 499.0, 713.0)"></image></g></svg>