<?xml version="1.0" encoding="UTF-8" standalone="no"?><svg xmlns="http://www.w3.org/2000/svg" xmlns:xlink="http://www.w3.org/1999/xlink" clip-rule="evenodd" stroke-miterlimit="4.00" viewBox="0 0 1024 768"><desc>SVG generated by Keynote</desc><defs></defs><g transform="matrix(1.00, 0.00, -0.00, -1.00, 0.0, 768.0)"><path d="M 0.0 768.0 L 1024.0 768.0 L 1024.0 0.0 L 0.0 0.0 Z M 0.0 768.0 " fill="#FEFFFF"></path><text xml:space="preserve" font-family="Helvetica-Light" font-size="53.6" fill="#000000" transform="matrix(1.00, 0.00, -0.00, -1.00, 108.0, 143.0)">S</text><text xml:space="preserve" font-family="Helvetica-Light" font-size="53.6" fill="#000000" transform="matrix(1.00, 0.00, -0.00, -1.00, 140.7, 143.0)">a</text><text xml:space="preserve" font-family="Helvetica-Light" font-size="53.6" fill="#000000" transform="matrix(1.00, 0.00, -0.00, -1.00, 170.6, 143.0)">l</text><text xml:space="preserve" font-family="Helvetica-Light" font-size="53.6" fill="#000000" transform="matrix(1.00, 0.00, -0.00, -1.00, 182.5, 143.0)">l</text><text xml:space="preserve" font-family="Helvetica-Light" font-size="53.6" fill="#000000" transform="matrix(1.00, 0.00, -0.00, -1.00, 194.3, 143.0)">y</text><text xml:space="preserve" font-family="Helvetica-Light" font-size="53.6" fill="#000000" transform="matrix(1.00, 0.00, -0.00, -1.00, 221.1, 143.0)"> </text><text xml:space="preserve" font-family="Helvetica-Light" font-size="53.6" fill="#000000" transform="matrix(1.00, 0.00, -0.00, -1.00, 236.1, 143.0)">h</text><text xml:space="preserve" font-family="Helvetica-Light" font-size="53.6" fill="#000000" transform="matrix(1.00, 0.00, -0.00, -1.00, 265.9, 143.0)">a</text><text xml:space="preserve" font-family="Helvetica-Light" font-size="53.6" fill="#000000" transform="matrix(1.00, 0.00, -0.00, -1.00, 295.7, 143.0)">s</text><text xml:space="preserve" font-family="Helvetica-Light" font-size="53.6" fill="#000000" transform="matrix(1.00, 0.00, -0.00, -1.00, 322.5, 143.0)"> </text><text xml:space="preserve" font-family="Helvetica-Light" font-size="53.6" fill="#000000" transform="matrix(1.00, 0.00, -0.00, -1.00, 337.4, 143.0)">h</text><text xml:space="preserve" font-family="Helvetica-Light" font-size="53.6" fill="#000000" transform="matrix(1.00, 0.00, -0.00, -1.00, 367.2, 143.0)">e</text><text xml:space="preserve" font-family="Helvetica-Light" font-size="53.6" fill="#000000" transform="matrix(1.00, 0.00, -0.00, -1.00, 397.0, 143.0)">r</text><text xml:space="preserve" font-family="Helvetica-Light" font-size="53.6" fill="#000000" transform="matrix(1.00, 0.00, -0.00, -1.00, 414.8, 143.0)"> </text><text xml:space="preserve" font-family="Helvetica-Light" font-size="53.6" fill="#000000" transform="matrix(1.00, 0.00, -0.00, -1.00, 429.7, 143.0)">c</text><text xml:space="preserve" font-family="Helvetica-Light" font-size="53.6" fill="#000000" transform="matrix(1.00, 0.00, -0.00, -1.00, 459.5, 143.0)">h</text><text xml:space="preserve" font-family="Helvetica-Light" font-size="53.6" fill="#000000" transform="matrix(1.00, 0.00, -0.00, -1.00, 489.3, 143.0)">o</text><text xml:space="preserve" font-family="Helvetica-Light" font-size="53.6" fill="#000000" transform="matrix(1.00, 0.00, -0.00, -1.00, 519.1, 143.0)">i</text><text xml:space="preserve" font-family="Helvetica-Light" font-size="53.6" fill="#000000" transform="matrix(1.00, 0.00, -0.00, -1.00, 531.0, 143.0)">c</text><text xml:space="preserve" font-family="Helvetica-Light" font-size="53.6" fill="#000000" transform="matrix(1.00, 0.00, -0.00, -1.00, 560.8, 143.0)">e</text><text xml:space="preserve" font-family="Helvetica-Light" font-size="53.6" fill="#000000" transform="matrix(1.00, 0.00, -0.00, -1.00, 590.6, 143.0)"> </text><text xml:space="preserve" font-family="Helvetica-Light" font-size="53.6" fill="#000000" transform="matrix(1.00, 0.00, -0.00, -1.00, 605.5, 143.0)">o</text><text xml:space="preserve" font-family="Helvetica-Light" font-size="53.6" fill="#000000" transform="matrix(1.00, 0.00, -0.00, -1.00, 635.3, 143.0)">f</text><text xml:space="preserve" font-family="Helvetica-Light" font-size="53.6" fill="#000000" transform="matrix(1.00, 0.00, -0.00, -1.00, 650.2, 143.0)"> </text><text xml:space="preserve" font-family="Helvetica-Light" font-size="53.6" fill="#000000" transform="matrix(1.00, 0.00, -0.00, -1.00, 665.1, 143.0)">f</text><text xml:space="preserve" font-family="Helvetica-Light" font-size="53.6" fill="#000000" transform="matrix(1.00, 0.00, -0.00, -1.00, 680.0, 143.0)">r</text><text xml:space="preserve" font-family="Helvetica-Light" font-size="53.6" fill="#000000" transform="matrix(1.00, 0.00, -0.00, -1.00, 697.9, 143.0)">a</text><text xml:space="preserve" font-family="Helvetica-Light" font-size="53.6" fill="#000000" transform="matrix(1.00, 0.00, -0.00, -1.00, 727.7, 143.0)">m</text><text xml:space="preserve" font-family="Helvetica-Light" font-size="53.6" fill="#000000" transform="matrix(1.00, 0.00, -0.00, -1.00, 772.3, 143.0)">e</text><text xml:space="preserve" font-family="Helvetica-Light" font-size="53.6" fill="#000000" transform="matrix(1.00, 0.00, -0.00, -1.00, 802.1, 143.0)">w</text><text xml:space="preserve" font-family="Helvetica-Light" font-size="53.6" fill="#000000" transform="matrix(1.00, 0.00, -0.00, -1.00, 840.8, 143.0)">o</text><text xml:space="preserve" font-family="Helvetica-Light" font-size="53.6" fill="#000000" transform="matrix(1.00, 0.00, -0.00, -1.00, 870.6, 143.0)">r</text><text xml:space="preserve" font-family="Helvetica-Light" font-size="53.6" fill="#000000" transform="matrix(1.00, 0.00, -0.00, -1.00, 888.5, 143.0)">k</text></g></svg>