<?xml version="1.0" encoding="UTF-8" standalone="no"?><svg xmlns="http://www.w3.org/2000/svg" xmlns:xlink="http://www.w3.org/1999/xlink" clip-rule="evenodd" stroke-miterlimit="4.00" viewBox="0 0 759 96"><desc>SVG generated by Keynote</desc><defs></defs><g transform="matrix(1.00, 0.00, -0.00, -1.00, 0.0, 96.0)"><text xml:space="preserve" font-family="Helvetica-Light" font-size="43.2" fill="#000000" transform="matrix(1.00, 0.00, -0.00, -1.00, 1.0, 63.0)">T</text><text xml:space="preserve" font-family="Helvetica-Light" font-size="43.2" fill="#000000" transform="matrix(1.00, 0.00, -0.00, -1.00, 25.0, 63.0)">h</text><text xml:space="preserve" font-family="Helvetica-Light" font-size="43.2" fill="#000000" transform="matrix(1.00, 0.00, -0.00, -1.00, 49.0, 63.0)">e</text><text xml:space="preserve" font-family="Helvetica-Light" font-size="43.2" fill="#000000" transform="matrix(1.00, 0.00, -0.00, -1.00, 73.1, 63.0)"> </text><text xml:space="preserve" font-family="Helvetica-Light" font-size="43.2" fill="#000000" transform="matrix(1.00, 0.00, -0.00, -1.00, 85.1, 63.0)">O</text><text xml:space="preserve" font-family="Helvetica-Light" font-size="43.2" fill="#000000" transform="matrix(1.00, 0.00, -0.00, -1.00, 118.7, 63.0)">p</text><text xml:space="preserve" font-family="Helvetica-Light" font-size="43.2" fill="#000000" transform="matrix(1.00, 0.00, -0.00, -1.00, 145.1, 63.0)">s</text><text xml:space="preserve" font-family="Helvetica-Light" font-size="43.2" fill="#000000" transform="matrix(1.00, 0.00, -0.00, -1.00, 166.7, 63.0)"> </text><text xml:space="preserve" font-family="Helvetica-Light" font-size="43.2" fill="#000000" transform="matrix(1.00, 0.00, -0.00, -1.00, 178.7, 63.0)">G</text><text xml:space="preserve" font-family="Helvetica-Light" font-size="43.2" fill="#000000" transform="matrix(1.00, 0.00, -0.00, -1.00, 212.3, 63.0)">e</text><text xml:space="preserve" font-family="Helvetica-Light" font-size="43.2" fill="#000000" transform="matrix(1.00, 0.00, -0.00, -1.00, 236.3, 63.0)">n</text><text xml:space="preserve" font-family="Helvetica-Light" font-size="43.2" fill="#000000" transform="matrix(1.00, 0.00, -0.00, -1.00, 260.3, 63.0)">i</text><text xml:space="preserve" font-family="Helvetica-Light" font-size="43.2" fill="#000000" transform="matrix(1.00, 0.00, -0.00, -1.00, 269.9, 63.0)">e</text><text xml:space="preserve" font-family="Helvetica-Light" font-size="43.2" fill="#000000" transform="matrix(1.00, 0.00, -0.00, -1.00, 293.9, 63.0)"> </text><text xml:space="preserve" font-family="Helvetica-Light" font-size="43.2" fill="#000000" transform="matrix(1.00, 0.00, -0.00, -1.00, 305.9, 63.0)">a</text><text xml:space="preserve" font-family="Helvetica-Light" font-size="43.2" fill="#000000" transform="matrix(1.00, 0.00, -0.00, -1.00, 330.0, 63.0)">s</text><text xml:space="preserve" font-family="Helvetica-Light" font-size="43.2" fill="#000000" transform="matrix(1.00, 0.00, -0.00, -1.00, 351.6, 63.0)">s</text><text xml:space="preserve" font-family="Helvetica-Light" font-size="43.2" fill="#000000" transform="matrix(1.00, 0.00, -0.00, -1.00, 373.2, 63.0)">i</text><text xml:space="preserve" font-family="Helvetica-Light" font-size="43.2" fill="#000000" transform="matrix(1.00, 0.00, -0.00, -1.00, 382.8, 63.0)">s</text><text xml:space="preserve" font-family="Helvetica-Light" font-size="43.2" fill="#000000" transform="matrix(1.00, 0.00, -0.00, -1.00, 404.4, 63.0)">t</text><text xml:space="preserve" font-family="Helvetica-Light" font-size="43.2" fill="#000000" transform="matrix(1.00, 0.00, -0.00, -1.00, 416.4, 63.0)">s</text><text xml:space="preserve" font-family="Helvetica-Light" font-size="43.2" fill="#000000" transform="matrix(1.00, 0.00, -0.00, -1.00, 438.0, 63.0)"> </text><text xml:space="preserve" font-family="Helvetica-Light" font-size="43.2" fill="#000000" transform="matrix(1.00, 0.00, -0.00, -1.00, 450.0, 63.0)">S</text><text xml:space="preserve" font-family="Helvetica-Light" font-size="43.2" fill="#000000" transform="matrix(1.00, 0.00, -0.00, -1.00, 476.4, 63.0)">a</text><text xml:space="preserve" font-family="Helvetica-Light" font-size="43.2" fill="#000000" transform="matrix(1.00, 0.00, -0.00, -1.00, 500.4, 63.0)">l</text><text xml:space="preserve" font-family="Helvetica-Light" font-size="43.2" fill="#000000" transform="matrix(1.00, 0.00, -0.00, -1.00, 510.0, 63.0)">l</text><text xml:space="preserve" font-family="Helvetica-Light" font-size="43.2" fill="#000000" transform="matrix(1.00, 0.00, -0.00, -1.00, 519.6, 63.0)">y</text><text xml:space="preserve" font-family="Helvetica-Light" font-size="43.2" fill="#000000" transform="matrix(1.00, 0.00, -0.00, -1.00, 541.2, 63.0)"> </text><text xml:space="preserve" font-family="Helvetica-Light" font-size="43.2" fill="#000000" transform="matrix(1.00, 0.00, -0.00, -1.00, 553.2, 63.0)">i</text><text xml:space="preserve" font-family="Helvetica-Light" font-size="43.2" fill="#000000" transform="matrix(1.00, 0.00, -0.00, -1.00, 562.8, 63.0)">n</text><text xml:space="preserve" font-family="Helvetica-Light" font-size="43.2" fill="#000000" transform="matrix(1.00, 0.00, -0.00, -1.00, 586.8, 63.0)"> </text><text xml:space="preserve" font-family="Helvetica-Light" font-size="43.2" fill="#000000" transform="matrix(1.00, 0.00, -0.00, -1.00, 598.8, 63.0)">ï¬</text><text xml:space="preserve" font-family="Helvetica-Light" font-size="43.2" fill="#000000" transform="matrix(1.00, 0.00, -0.00, -1.00, 620.4, 63.0)">x</text><text xml:space="preserve" font-family="Helvetica-Light" font-size="43.2" fill="#000000" transform="matrix(1.00, 0.00, -0.00, -1.00, 642.0, 63.0)">i</text><text xml:space="preserve" font-family="Helvetica-Light" font-size="43.2" fill="#000000" transform="matrix(1.00, 0.00, -0.00, -1.00, 651.6, 63.0)">n</text><text xml:space="preserve" font-family="Helvetica-Light" font-size="43.2" fill="#000000" transform="matrix(1.00, 0.00, -0.00, -1.00, 675.6, 63.0)">g</text><text xml:space="preserve" font-family="Helvetica-Light" font-size="43.2" fill="#000000" transform="matrix(1.00, 0.00, -0.00, -1.00, 702.0, 63.0)"> </text><text xml:space="preserve" font-family="Helvetica-Light" font-size="43.2" fill="#000000" transform="matrix(1.00, 0.00, -0.00, -1.00, 714.0, 63.0)">a</text><text xml:space="preserve" font-family="Helvetica-Light" font-size="43.2" fill="#000000" transform="matrix(1.00, 0.00, -0.00, -1.00, 738.0, 63.0)">l</text><text xml:space="preserve" font-family="Helvetica-Light" font-size="43.2" fill="#000000" transform="matrix(1.00, 0.00, -0.00, -1.00, 747.6, 63.0)">l</text><text xml:space="preserve" font-family="Helvetica-Light" font-size="43.2" fill="#000000" transform="matrix(1.00, 0.00, -0.00, -1.00, 757.2, 63.0)"> </text><text xml:space="preserve" font-family="Helvetica-Light" font-size="43.2" fill="#000000" transform="matrix(1.00, 0.00, -0.00, -1.00, 211.0, 11.0)">t</text><text xml:space="preserve" font-family="Helvetica-Light" font-size="43.2" fill="#000000" transform="matrix(1.00, 0.00, -0.00, -1.00, 223.0, 11.0)">h</text><text xml:space="preserve" font-family="Helvetica-Light" font-size="43.2" fill="#000000" transform="matrix(1.00, 0.00, -0.00, -1.00, 247.0, 11.0)">e</text><text xml:space="preserve" font-family="Helvetica-Light" font-size="43.2" fill="#000000" transform="matrix(1.00, 0.00, -0.00, -1.00, 271.0, 11.0)"> </text><text xml:space="preserve" font-family="Helvetica-Light" font-size="43.2" fill="#000000" transform="matrix(1.00, 0.00, -0.00, -1.00, 283.1, 11.0)">b</text><text xml:space="preserve" font-family="Helvetica-Light" font-size="43.2" fill="#000000" transform="matrix(1.00, 0.00, -0.00, -1.00, 309.5, 11.0)">r</text><text xml:space="preserve" font-family="Helvetica-Light" font-size="43.2" fill="#000000" transform="matrix(1.00, 0.00, -0.00, -1.00, 323.1, 11.0)">o</text><text xml:space="preserve" font-family="Helvetica-Light" font-size="43.2" fill="#000000" transform="matrix(1.00, 0.00, -0.00, -1.00, 347.1, 11.0)">k</text><text xml:space="preserve" font-family="Helvetica-Light" font-size="43.2" fill="#000000" transform="matrix(1.00, 0.00, -0.00, -1.00, 368.7, 11.0)">e</text><text xml:space="preserve" font-family="Helvetica-Light" font-size="43.2" fill="#000000" transform="matrix(1.00, 0.00, -0.00, -1.00, 392.7, 11.0)">n</text><text xml:space="preserve" font-family="Helvetica-Light" font-size="43.2" fill="#000000" transform="matrix(1.00, 0.00, -0.00, -1.00, 416.7, 11.0)"> </text><text xml:space="preserve" font-family="Helvetica-Light" font-size="43.2" fill="#000000" transform="matrix(1.00, 0.00, -0.00, -1.00, 428.7, 11.0)">t</text><text xml:space="preserve" font-family="Helvetica-Light" font-size="43.2" fill="#000000" transform="matrix(1.00, 0.00, -0.00, -1.00, 440.7, 11.0)">h</text><text xml:space="preserve" font-family="Helvetica-Light" font-size="43.2" fill="#000000" transform="matrix(1.00, 0.00, -0.00, -1.00, 464.8, 11.0)">i</text><text xml:space="preserve" font-family="Helvetica-Light" font-size="43.2" fill="#000000" transform="matrix(1.00, 0.00, -0.00, -1.00, 474.3, 11.0)">n</text><text xml:space="preserve" font-family="Helvetica-Light" font-size="43.2" fill="#000000" transform="matrix(1.00, 0.00, -0.00, -1.00, 498.4, 11.0)">g</text><text xml:space="preserve" font-family="Helvetica-Light" font-size="43.2" fill="#000000" transform="matrix(1.00, 0.00, -0.00, -1.00, 524.8, 11.0)">s</text></g></svg>