<?xml version="1.0" encoding="UTF-8" standalone="no"?><svg xmlns="http://www.w3.org/2000/svg" xmlns:xlink="http://www.w3.org/1999/xlink" clip-rule="evenodd" stroke-miterlimit="4.00" viewBox="0 0 1024 768"><desc>SVG generated by Keynote</desc><defs></defs><g transform="matrix(1.00, 0.00, -0.00, -1.00, 0.0, 768.0)"><path d="M 0.0 768.0 L 1024.0 768.0 L 1024.0 0.0 L 0.0 0.0 Z M 0.0 768.0 " fill="#FEFFFF"></path><g><clipPath id="clip-95"><path d="M 0.0 768.0 L 1024.0 768.0 L 1024.0 282.0 L 0.0 282.0 Z M 0.0 768.0 "></path></clipPath><g clip-path="url(#clip-95)"><image xlink:href="168E8E7318D198A16DB69E19EB49913D.png" width="960.00" height="256.00" transform="matrix(1.07, 0.00, -0.00, -1.07, 0.0, 521.0)"></image></g></g><image xlink:href="73839EBD702746C63E7886FDEC8595AB.png" width="489.00" height="221.00" transform="matrix(1.00, 0.00, -0.00, -1.00, 450.3, 641.6)" opacity="0.50"></image><path d="M 458.3 640.6 C 455.6 640.6 453.3 638.4 453.3 635.6 L 453.3 545.6 C 453.3 542.9 455.6 540.6 458.3 540.6 L 683.6 540.6 L 936.2 425.6 L 738.0 573.1 L 738.0 635.6 C 738.0 638.4 735.8 640.6 733.0 640.6 L 458.3 640.6 Z M 458.3 640.6 " fill="#C82505"></path><g><clipPath id="clip-96"><path d="M 451.3 540.6 L 740.0 540.6 L 740.0 640.6 L 451.3 640.6 Z M 451.3 540.6 "></path></clipPath><g clip-path="url(#clip-96)"><text xml:space="preserve" font-family="Helvetica-Light" font-size="24.0" fill="#FEFFFE" transform="matrix(1.00, 0.00, -0.00, -1.00, 545.0, 582.0)">O</text><text xml:space="preserve" font-family="Helvetica-Light" font-size="24.0" fill="#FEFFFE" transform="matrix(1.00, 0.00, -0.00, -1.00, 563.7, 582.0)">h</text><text xml:space="preserve" font-family="Helvetica-Light" font-size="24.0" fill="#FEFFFE" transform="matrix(1.00, 0.00, -0.00, -1.00, 577.0, 582.0)">,</text><text xml:space="preserve" font-family="Helvetica-Light" font-size="24.0" fill="#FEFFFE" transform="matrix(1.00, 0.00, -0.00, -1.00, 583.7, 582.0)"> </text><text xml:space="preserve" font-family="Helvetica-Light" font-size="24.0" fill="#FEFFFE" transform="matrix(1.00, 0.00, -0.00, -1.00, 590.4, 582.0)">S</text><text xml:space="preserve" font-family="Helvetica-Light" font-size="24.0" fill="#FEFFFE" transform="matrix(1.00, 0.00, -0.00, -1.00, 605.0, 582.0)">*</text><text xml:space="preserve" font-family="Helvetica-Light" font-size="24.0" fill="#FEFFFE" transform="matrix(1.00, 0.00, -0.00, -1.00, 614.4, 582.0)">*</text><text xml:space="preserve" font-family="Helvetica-Light" font-size="24.0" fill="#FEFFFE" transform="matrix(1.00, 0.00, -0.00, -1.00, 623.7, 582.0)">t</text><text xml:space="preserve" font-family="Helvetica-Light" font-size="24.0" fill="#FEFFFE" transform="matrix(1.00, 0.00, -0.00, -1.00, 630.4, 582.0)">!</text><text xml:space="preserve" font-family="Helvetica-Light" font-size="24.0" fill="#FEFFFE" transform="matrix(1.00, 0.00, -0.00, -1.00, 638.4, 582.0)">!</text></g></g></g></svg>