<?xml version="1.0" encoding="UTF-8" standalone="no"?><svg xmlns="http://www.w3.org/2000/svg" xmlns:xlink="http://www.w3.org/1999/xlink" clip-rule="evenodd" stroke-miterlimit="4.00" viewBox="0 0 1024 768"><desc>SVG generated by Keynote</desc><defs></defs><g transform="matrix(1.00, 0.00, -0.00, -1.00, 0.0, 768.0)"><path d="M 0.0 768.0 L 1024.0 768.0 L 1024.0 0.0 L 0.0 0.0 Z M 0.0 768.0 " fill="#FEFFFF"></path><text xml:space="preserve" font-family="Helvetica-Light" font-size="70.4" fill="#000000" transform="matrix(1.00, 0.00, -0.00, -1.00, 121.0, 442.0)">S</text><text xml:space="preserve" font-family="Helvetica-Light" font-size="70.4" fill="#000000" transform="matrix(1.00, 0.00, -0.00, -1.00, 164.0, 442.0)">o</text><text xml:space="preserve" font-family="Helvetica-Light" font-size="70.4" fill="#000000" transform="matrix(1.00, 0.00, -0.00, -1.00, 203.2, 442.0)"> </text><text xml:space="preserve" font-family="Helvetica-Light" font-size="70.4" fill="#000000" transform="matrix(1.00, 0.00, -0.00, -1.00, 222.7, 442.0)">w</text><text xml:space="preserve" font-family="Helvetica-Light" font-size="70.4" fill="#000000" transform="matrix(1.00, 0.00, -0.00, -1.00, 273.6, 442.0)">h</text><text xml:space="preserve" font-family="Helvetica-Light" font-size="70.4" fill="#000000" transform="matrix(1.00, 0.00, -0.00, -1.00, 312.7, 442.0)">a</text><text xml:space="preserve" font-family="Helvetica-Light" font-size="70.4" fill="#000000" transform="matrix(1.00, 0.00, -0.00, -1.00, 351.8, 442.0)">t</text><text xml:space="preserve" font-family="Helvetica-Light" font-size="70.4" fill="#000000" transform="matrix(1.00, 0.00, -0.00, -1.00, 371.4, 442.0)"> </text><text xml:space="preserve" font-family="Helvetica-Light" font-size="70.4" fill="#000000" transform="matrix(1.00, 0.00, -0.00, -1.00, 391.0, 442.0)">w</text><text xml:space="preserve" font-family="Helvetica-Light" font-size="70.4" fill="#000000" transform="matrix(1.00, 0.00, -0.00, -1.00, 441.8, 442.0)">o</text><text xml:space="preserve" font-family="Helvetica-Light" font-size="70.4" fill="#000000" transform="matrix(1.00, 0.00, -0.00, -1.00, 481.0, 442.0)">u</text><text xml:space="preserve" font-family="Helvetica-Light" font-size="70.4" fill="#000000" transform="matrix(1.00, 0.00, -0.00, -1.00, 520.1, 442.0)">l</text><text xml:space="preserve" font-family="Helvetica-Light" font-size="70.4" fill="#000000" transform="matrix(1.00, 0.00, -0.00, -1.00, 535.7, 442.0)">d</text><text xml:space="preserve" font-family="Helvetica-Light" font-size="70.4" fill="#000000" transform="matrix(1.00, 0.00, -0.00, -1.00, 578.7, 442.0)"> </text><text xml:space="preserve" font-family="Helvetica-Light" font-size="70.4" fill="#000000" transform="matrix(1.00, 0.00, -0.00, -1.00, 598.3, 442.0)">S</text><text xml:space="preserve" font-family="Helvetica-Light" font-size="70.4" fill="#000000" transform="matrix(1.00, 0.00, -0.00, -1.00, 641.3, 442.0)">a</text><text xml:space="preserve" font-family="Helvetica-Light" font-size="70.4" fill="#000000" transform="matrix(1.00, 0.00, -0.00, -1.00, 680.5, 442.0)">l</text><text xml:space="preserve" font-family="Helvetica-Light" font-size="70.4" fill="#000000" transform="matrix(1.00, 0.00, -0.00, -1.00, 696.1, 442.0)">l</text><text xml:space="preserve" font-family="Helvetica-Light" font-size="70.4" fill="#000000" transform="matrix(1.00, 0.00, -0.00, -1.00, 711.7, 442.0)">y</text><text xml:space="preserve" font-family="Helvetica-Light" font-size="70.4" fill="#000000" transform="matrix(1.00, 0.00, -0.00, -1.00, 746.9, 442.0)"> </text><text xml:space="preserve" font-family="Helvetica-Light" font-size="70.4" fill="#000000" transform="matrix(1.00, 0.00, -0.00, -1.00, 766.5, 442.0)">g</text><text xml:space="preserve" font-family="Helvetica-Light" font-size="70.4" fill="#000000" transform="matrix(1.00, 0.00, -0.00, -1.00, 809.5, 442.0)">a</text><text xml:space="preserve" font-family="Helvetica-Light" font-size="70.4" fill="#000000" transform="matrix(1.00, 0.00, -0.00, -1.00, 848.7, 442.0)">i</text><text xml:space="preserve" font-family="Helvetica-Light" font-size="70.4" fill="#000000" transform="matrix(1.00, 0.00, -0.00, -1.00, 864.3, 442.0)">n</text><text xml:space="preserve" font-family="Helvetica-Light" font-size="70.4" fill="#000000" transform="matrix(1.00, 0.00, -0.00, -1.00, 903.4, 442.0)"> </text><text xml:space="preserve" font-family="Helvetica-Light" font-size="70.4" fill="#000000" transform="matrix(1.00, 0.00, -0.00, -1.00, 145.0, 358.0)">f</text><text xml:space="preserve" font-family="Helvetica-Light" font-size="70.4" fill="#000000" transform="matrix(1.00, 0.00, -0.00, -1.00, 164.6, 358.0)">r</text><text xml:space="preserve" font-family="Helvetica-Light" font-size="70.4" fill="#000000" transform="matrix(1.00, 0.00, -0.00, -1.00, 186.7, 358.0)">o</text><text xml:space="preserve" font-family="Helvetica-Light" font-size="70.4" fill="#000000" transform="matrix(1.00, 0.00, -0.00, -1.00, 225.9, 358.0)">m</text><text xml:space="preserve" font-family="Helvetica-Light" font-size="70.4" fill="#000000" transform="matrix(1.00, 0.00, -0.00, -1.00, 284.5, 358.0)"> </text><text xml:space="preserve" font-family="Helvetica-Light" font-size="70.4" fill="#000000" transform="matrix(1.00, 0.00, -0.00, -1.00, 304.1, 358.0)">m</text><text xml:space="preserve" font-family="Helvetica-Light" font-size="70.4" fill="#000000" transform="matrix(1.00, 0.00, -0.00, -1.00, 362.7, 358.0)">o</text><text xml:space="preserve" font-family="Helvetica-Light" font-size="70.4" fill="#000000" transform="matrix(1.00, 0.00, -0.00, -1.00, 401.9, 358.0)">v</text><text xml:space="preserve" font-family="Helvetica-Light" font-size="70.4" fill="#000000" transform="matrix(1.00, 0.00, -0.00, -1.00, 437.1, 358.0)">i</text><text xml:space="preserve" font-family="Helvetica-Light" font-size="70.4" fill="#000000" transform="matrix(1.00, 0.00, -0.00, -1.00, 452.7, 358.0)">n</text><text xml:space="preserve" font-family="Helvetica-Light" font-size="70.4" fill="#000000" transform="matrix(1.00, 0.00, -0.00, -1.00, 491.9, 358.0)">g</text><text xml:space="preserve" font-family="Helvetica-Light" font-size="70.4" fill="#000000" transform="matrix(1.00, 0.00, -0.00, -1.00, 534.9, 358.0)"> </text><text xml:space="preserve" font-family="Helvetica-Light" font-size="70.4" fill="#000000" transform="matrix(1.00, 0.00, -0.00, -1.00, 554.4, 358.0)">h</text><text xml:space="preserve" font-family="Helvetica-Light" font-size="70.4" fill="#000000" transform="matrix(1.00, 0.00, -0.00, -1.00, 593.6, 358.0)">e</text><text xml:space="preserve" font-family="Helvetica-Light" font-size="70.4" fill="#000000" transform="matrix(1.00, 0.00, -0.00, -1.00, 632.7, 358.0)">r</text><text xml:space="preserve" font-family="Helvetica-Light" font-size="70.4" fill="#000000" transform="matrix(1.00, 0.00, -0.00, -1.00, 656.2, 358.0)"> </text><text xml:space="preserve" font-family="Helvetica-Light" font-size="70.4" fill="#000000" transform="matrix(1.00, 0.00, -0.00, -1.00, 675.7, 358.0)">a</text><text xml:space="preserve" font-family="Helvetica-Light" font-size="70.4" fill="#000000" transform="matrix(1.00, 0.00, -0.00, -1.00, 714.9, 358.0)">p</text><text xml:space="preserve" font-family="Helvetica-Light" font-size="70.4" fill="#000000" transform="matrix(1.00, 0.00, -0.00, -1.00, 757.9, 358.0)">p</text><text xml:space="preserve" font-family="Helvetica-Light" font-size="70.4" fill="#000000" transform="matrix(1.00, 0.00, -0.00, -1.00, 800.9, 358.0)"> </text><text xml:space="preserve" font-family="Helvetica-Light" font-size="70.4" fill="#000000" transform="matrix(1.00, 0.00, -0.00, -1.00, 820.5, 358.0)">t</text><text xml:space="preserve" font-family="Helvetica-Light" font-size="70.4" fill="#000000" transform="matrix(1.00, 0.00, -0.00, -1.00, 840.1, 358.0)">o</text><text xml:space="preserve" font-family="Helvetica-Light" font-size="70.4" fill="#000000" transform="matrix(1.00, 0.00, -0.00, -1.00, 879.2, 358.0)"> </text><text xml:space="preserve" font-family="Helvetica-Light" font-size="70.4" fill="#000000" transform="matrix(1.00, 0.00, -0.00, -1.00, 330.0, 274.0)">c</text><text xml:space="preserve" font-family="Helvetica-Light" font-size="70.4" fill="#000000" transform="matrix(1.00, 0.00, -0.00, -1.00, 369.1, 274.0)">o</text><text xml:space="preserve" font-family="Helvetica-Light" font-size="70.4" fill="#000000" transform="matrix(1.00, 0.00, -0.00, -1.00, 408.3, 274.0)">n</text><text xml:space="preserve" font-family="Helvetica-Light" font-size="70.4" fill="#000000" transform="matrix(1.00, 0.00, -0.00, -1.00, 447.4, 274.0)">t</text><text xml:space="preserve" font-family="Helvetica-Light" font-size="70.4" fill="#000000" transform="matrix(1.00, 0.00, -0.00, -1.00, 467.0, 274.0)">a</text><text xml:space="preserve" font-family="Helvetica-Light" font-size="70.4" fill="#000000" transform="matrix(1.00, 0.00, -0.00, -1.00, 506.1, 274.0)">i</text><text xml:space="preserve" font-family="Helvetica-Light" font-size="70.4" fill="#000000" transform="matrix(1.00, 0.00, -0.00, -1.00, 521.8, 274.0)">n</text><text xml:space="preserve" font-family="Helvetica-Light" font-size="70.4" fill="#000000" transform="matrix(1.00, 0.00, -0.00, -1.00, 560.9, 274.0)">e</text><text xml:space="preserve" font-family="Helvetica-Light" font-size="70.4" fill="#000000" transform="matrix(1.00, 0.00, -0.00, -1.00, 600.1, 274.0)">r</text><text xml:space="preserve" font-family="Helvetica-Light" font-size="70.4" fill="#000000" transform="matrix(1.00, 0.00, -0.00, -1.00, 623.5, 274.0)">s</text><text xml:space="preserve" font-family="Helvetica-Light" font-size="70.4" fill="#000000" transform="matrix(1.00, 0.00, -0.00, -1.00, 658.7, 274.0)">?</text></g></svg>