<?xml version="1.0" encoding="UTF-8" standalone="no"?><svg xmlns="http://www.w3.org/2000/svg" xmlns:xlink="http://www.w3.org/1999/xlink" clip-rule="evenodd" stroke-miterlimit="4.00" viewBox="0 0 1024 768"><desc>SVG generated by Keynote</desc><defs></defs><g transform="matrix(1.00, 0.00, -0.00, -1.00, 0.0, 768.0)"><path d="M 0.0 768.0 L 1024.0 768.0 L 1024.0 0.0 L 0.0 0.0 Z M 0.0 768.0 " fill="#FEFFFF"></path><text xml:space="preserve" font-family="Helvetica-Light" font-size="73.6" fill="#000000" transform="matrix(1.00, 0.00, -0.00, -1.00, 105.0, 401.0)">W</text><text xml:space="preserve" font-family="Helvetica-Light" font-size="73.6" fill="#000000" transform="matrix(1.00, 0.00, -0.00, -1.00, 170.4, 401.0)">h</text><text xml:space="preserve" font-family="Helvetica-Light" font-size="73.6" fill="#000000" transform="matrix(1.00, 0.00, -0.00, -1.00, 211.4, 401.0)">a</text><text xml:space="preserve" font-family="Helvetica-Light" font-size="73.6" fill="#000000" transform="matrix(1.00, 0.00, -0.00, -1.00, 252.3, 401.0)">t</text><text xml:space="preserve" font-family="Helvetica-Light" font-size="73.6" fill="#000000" transform="matrix(1.00, 0.00, -0.00, -1.00, 272.7, 401.0)"> </text><text xml:space="preserve" font-family="Helvetica-Light" font-size="73.6" fill="#000000" transform="matrix(1.00, 0.00, -0.00, -1.00, 293.2, 401.0)">t</text><text xml:space="preserve" font-family="Helvetica-Light" font-size="73.6" fill="#000000" transform="matrix(1.00, 0.00, -0.00, -1.00, 313.7, 401.0)">e</text><text xml:space="preserve" font-family="Helvetica-Light" font-size="73.6" fill="#000000" transform="matrix(1.00, 0.00, -0.00, -1.00, 354.6, 401.0)">c</text><text xml:space="preserve" font-family="Helvetica-Light" font-size="73.6" fill="#000000" transform="matrix(1.00, 0.00, -0.00, -1.00, 395.5, 401.0)">h</text><text xml:space="preserve" font-family="Helvetica-Light" font-size="73.6" fill="#000000" transform="matrix(1.00, 0.00, -0.00, -1.00, 436.4, 401.0)">n</text><text xml:space="preserve" font-family="Helvetica-Light" font-size="73.6" fill="#000000" transform="matrix(1.00, 0.00, -0.00, -1.00, 477.3, 401.0)">o</text><text xml:space="preserve" font-family="Helvetica-Light" font-size="73.6" fill="#000000" transform="matrix(1.00, 0.00, -0.00, -1.00, 518.3, 401.0)">l</text><text xml:space="preserve" font-family="Helvetica-Light" font-size="73.6" fill="#000000" transform="matrix(1.00, 0.00, -0.00, -1.00, 534.6, 401.0)">o</text><text xml:space="preserve" font-family="Helvetica-Light" font-size="73.6" fill="#000000" transform="matrix(1.00, 0.00, -0.00, -1.00, 575.5, 401.0)">g</text><text xml:space="preserve" font-family="Helvetica-Light" font-size="73.6" fill="#000000" transform="matrix(1.00, 0.00, -0.00, -1.00, 620.5, 401.0)">i</text><text xml:space="preserve" font-family="Helvetica-Light" font-size="73.6" fill="#000000" transform="matrix(1.00, 0.00, -0.00, -1.00, 636.8, 401.0)">e</text><text xml:space="preserve" font-family="Helvetica-Light" font-size="73.6" fill="#000000" transform="matrix(1.00, 0.00, -0.00, -1.00, 677.8, 401.0)">s</text><text xml:space="preserve" font-family="Helvetica-Light" font-size="73.6" fill="#000000" transform="matrix(1.00, 0.00, -0.00, -1.00, 714.6, 401.0)"> </text><text xml:space="preserve" font-family="Helvetica-Light" font-size="73.6" fill="#000000" transform="matrix(1.00, 0.00, -0.00, -1.00, 735.0, 401.0)">c</text><text xml:space="preserve" font-family="Helvetica-Light" font-size="73.6" fill="#000000" transform="matrix(1.00, 0.00, -0.00, -1.00, 775.9, 401.0)">o</text><text xml:space="preserve" font-family="Helvetica-Light" font-size="73.6" fill="#000000" transform="matrix(1.00, 0.00, -0.00, -1.00, 816.9, 401.0)">u</text><text xml:space="preserve" font-family="Helvetica-Light" font-size="73.6" fill="#000000" transform="matrix(1.00, 0.00, -0.00, -1.00, 857.8, 401.0)">l</text><text xml:space="preserve" font-family="Helvetica-Light" font-size="73.6" fill="#000000" transform="matrix(1.00, 0.00, -0.00, -1.00, 874.1, 401.0)">d</text><text xml:space="preserve" font-family="Helvetica-Light" font-size="73.6" fill="#000000" transform="matrix(1.00, 0.00, -0.00, -1.00, 919.1, 401.0)"> </text><text xml:space="preserve" font-family="Helvetica-Light" font-size="73.6" fill="#000000" transform="matrix(1.00, 0.00, -0.00, -1.00, 187.0, 312.0)">p</text><text xml:space="preserve" font-family="Helvetica-Light" font-size="73.6" fill="#000000" transform="matrix(1.00, 0.00, -0.00, -1.00, 232.0, 312.0)">o</text><text xml:space="preserve" font-family="Helvetica-Light" font-size="73.6" fill="#000000" transform="matrix(1.00, 0.00, -0.00, -1.00, 272.9, 312.0)">s</text><text xml:space="preserve" font-family="Helvetica-Light" font-size="73.6" fill="#000000" transform="matrix(1.00, 0.00, -0.00, -1.00, 309.7, 312.0)">s</text><text xml:space="preserve" font-family="Helvetica-Light" font-size="73.6" fill="#000000" transform="matrix(1.00, 0.00, -0.00, -1.00, 346.5, 312.0)">i</text><text xml:space="preserve" font-family="Helvetica-Light" font-size="73.6" fill="#000000" transform="matrix(1.00, 0.00, -0.00, -1.00, 362.8, 312.0)">b</text><text xml:space="preserve" font-family="Helvetica-Light" font-size="73.6" fill="#000000" transform="matrix(1.00, 0.00, -0.00, -1.00, 407.8, 312.0)">l</text><text xml:space="preserve" font-family="Helvetica-Light" font-size="73.6" fill="#000000" transform="matrix(1.00, 0.00, -0.00, -1.00, 424.1, 312.0)">y</text><text xml:space="preserve" font-family="Helvetica-Light" font-size="73.6" fill="#000000" transform="matrix(1.00, 0.00, -0.00, -1.00, 460.9, 312.0)"> </text><text xml:space="preserve" font-family="Helvetica-Light" font-size="73.6" fill="#000000" transform="matrix(1.00, 0.00, -0.00, -1.00, 481.4, 312.0)">h</text><text xml:space="preserve" font-family="Helvetica-Light" font-size="73.6" fill="#000000" transform="matrix(1.00, 0.00, -0.00, -1.00, 522.3, 312.0)">e</text><text xml:space="preserve" font-family="Helvetica-Light" font-size="73.6" fill="#000000" transform="matrix(1.00, 0.00, -0.00, -1.00, 563.2, 312.0)">l</text><text xml:space="preserve" font-family="Helvetica-Light" font-size="73.6" fill="#000000" transform="matrix(1.00, 0.00, -0.00, -1.00, 579.6, 312.0)">p</text><text xml:space="preserve" font-family="Helvetica-Light" font-size="73.6" fill="#000000" transform="matrix(1.00, 0.00, -0.00, -1.00, 624.6, 312.0)"> </text><text xml:space="preserve" font-family="Helvetica-Light" font-size="73.6" fill="#000000" transform="matrix(1.00, 0.00, -0.00, -1.00, 645.0, 312.0)">S</text><text xml:space="preserve" font-family="Helvetica-Light" font-size="73.6" fill="#000000" transform="matrix(1.00, 0.00, -0.00, -1.00, 690.0, 312.0)">a</text><text xml:space="preserve" font-family="Helvetica-Light" font-size="73.6" fill="#000000" transform="matrix(1.00, 0.00, -0.00, -1.00, 730.9, 312.0)">l</text><text xml:space="preserve" font-family="Helvetica-Light" font-size="73.6" fill="#000000" transform="matrix(1.00, 0.00, -0.00, -1.00, 747.2, 312.0)">l</text><text xml:space="preserve" font-family="Helvetica-Light" font-size="73.6" fill="#000000" transform="matrix(1.00, 0.00, -0.00, -1.00, 763.6, 312.0)">y</text><text xml:space="preserve" font-family="Helvetica-Light" font-size="73.6" fill="#000000" transform="matrix(1.00, 0.00, -0.00, -1.00, 800.4, 312.0)">?</text></g></svg>