<?xml version="1.0" encoding="UTF-8" standalone="no"?><svg xmlns="http://www.w3.org/2000/svg" xmlns:xlink="http://www.w3.org/1999/xlink" clip-rule="evenodd" stroke-miterlimit="4.00" viewBox="0 0 1024 768"><desc>SVG generated by Keynote</desc><defs></defs><g transform="matrix(1.00, 0.00, -0.00, -1.00, 0.0, 768.0)"><path d="M 0.0 768.0 L 1024.0 768.0 L 1024.0 0.0 L 0.0 0.0 Z M 0.0 768.0 " fill="#FEFFFF"></path><text xml:space="preserve" font-family="Helvetica-LightOblique" font-style="italic" font-size="80.0" fill="#000000" transform="matrix(1.00, 0.00, -0.00, -1.00, 241.0, 354.0)">T</text><text xml:space="preserve" font-family="Helvetica-LightOblique" font-style="italic" font-size="80.0" fill="#000000" transform="matrix(1.00, 0.00, -0.00, -1.00, 285.5, 354.0)">h</text><text xml:space="preserve" font-family="Helvetica-LightOblique" font-style="italic" font-size="80.0" fill="#000000" transform="matrix(1.00, 0.00, -0.00, -1.00, 330.0, 354.0)">i</text><text xml:space="preserve" font-family="Helvetica-LightOblique" font-style="italic" font-size="80.0" fill="#000000" transform="matrix(1.00, 0.00, -0.00, -1.00, 347.7, 354.0)">s</text><text xml:space="preserve" font-family="Helvetica-LightOblique" font-style="italic" font-size="80.0" fill="#000000" transform="matrix(1.00, 0.00, -0.00, -1.00, 387.7, 354.0)"> </text><text xml:space="preserve" font-family="Helvetica-LightOblique" font-style="italic" font-size="80.0" fill="#000000" transform="matrix(1.00, 0.00, -0.00, -1.00, 410.0, 354.0)">i</text><text xml:space="preserve" font-family="Helvetica-LightOblique" font-style="italic" font-size="80.0" fill="#000000" transform="matrix(1.00, 0.00, -0.00, -1.00, 427.7, 354.0)">s</text><text xml:space="preserve" font-family="Helvetica-LightOblique" font-style="italic" font-size="80.0" fill="#000000" transform="matrix(1.00, 0.00, -0.00, -1.00, 467.7, 354.0)"> </text><text xml:space="preserve" font-family="Helvetica-LightOblique" font-style="italic" font-size="80.0" fill="#000000" transform="matrix(1.00, 0.00, -0.00, -1.00, 490.0, 354.0)">D</text><text xml:space="preserve" font-family="Helvetica-LightOblique" font-style="italic" font-size="80.0" fill="#000000" transform="matrix(1.00, 0.00, -0.00, -1.00, 547.7, 354.0)">e</text><text xml:space="preserve" font-family="Helvetica-LightOblique" font-style="italic" font-size="80.0" fill="#000000" transform="matrix(1.00, 0.00, -0.00, -1.00, 592.2, 354.0)">v</text><text xml:space="preserve" font-family="Helvetica-LightOblique" font-style="italic" font-size="80.0" fill="#000000" transform="matrix(1.00, 0.00, -0.00, -1.00, 632.2, 354.0)">O</text><text xml:space="preserve" font-family="Helvetica-LightOblique" font-style="italic" font-size="80.0" fill="#000000" transform="matrix(1.00, 0.00, -0.00, -1.00, 694.4, 354.0)">p</text><text xml:space="preserve" font-family="Helvetica-LightOblique" font-style="italic" font-size="80.0" fill="#000000" transform="matrix(1.00, 0.00, -0.00, -1.00, 743.3, 354.0)">s</text><g><clipPath id="clip-127"><path d="M 239.8 345.4 L 783.2 345.4 L 783.2 351.4 L 239.8 351.4 Z M 239.8 345.4 "></path></clipPath><g clip-path="url(#clip-127)"><path d="M 140.8 165.6 L 683.2 165.6 " fill="none" stroke="#000000" stroke-width="4.00" stroke-miterlimit="0.00" transform="matrix(1.00, 0.00, 0.00, -1.00, 100.0, 514.0)"></path></g></g></g></svg>