<?xml version="1.0" encoding="UTF-8" standalone="no"?><svg xmlns="http://www.w3.org/2000/svg" xmlns:xlink="http://www.w3.org/1999/xlink" clip-rule="evenodd" stroke-miterlimit="4.00" viewBox="0 0 1024 768"><desc>SVG generated by Keynote</desc><defs></defs><g transform="matrix(1.00, 0.00, -0.00, -1.00, 0.0, 768.0)"><path d="M 0.0 768.0 L 1024.0 768.0 L 1024.0 0.0 L 0.0 0.0 Z M 0.0 768.0 " fill="#FEFFFF"></path><text xml:space="preserve" font-family="Helvetica-Light" font-size="56.8" fill="#000000" transform="matrix(1.00, 0.00, -0.00, -1.00, 170.0, 431.0)">T</text><text xml:space="preserve" font-family="Helvetica-Light" font-size="56.8" fill="#000000" transform="matrix(1.00, 0.00, -0.00, -1.00, 195.3, 431.0)">o</text><text xml:space="preserve" font-family="Helvetica-Light" font-size="56.8" fill="#000000" transform="matrix(1.00, 0.00, -0.00, -1.00, 226.9, 431.0)">d</text><text xml:space="preserve" font-family="Helvetica-Light" font-size="56.8" fill="#000000" transform="matrix(1.00, 0.00, -0.00, -1.00, 261.6, 431.0)">a</text><text xml:space="preserve" font-family="Helvetica-Light" font-size="56.8" fill="#000000" transform="matrix(1.00, 0.00, -0.00, -1.00, 293.1, 431.0)">y</text><text xml:space="preserve" font-family="Helvetica-Light" font-size="56.8" fill="#000000" transform="matrix(1.00, 0.00, -0.00, -1.00, 321.5, 431.0)"> </text><text xml:space="preserve" font-family="Helvetica-Light" font-size="56.8" fill="#000000" transform="matrix(1.00, 0.00, -0.00, -1.00, 337.3, 431.0)">i</text><text xml:space="preserve" font-family="Helvetica-Light" font-size="56.8" fill="#000000" transform="matrix(1.00, 0.00, -0.00, -1.00, 349.9, 431.0)">s</text><text xml:space="preserve" font-family="Helvetica-Light" font-size="56.8" fill="#000000" transform="matrix(1.00, 0.00, -0.00, -1.00, 378.3, 431.0)"> </text><text xml:space="preserve" font-family="Helvetica-Light" font-size="56.8" fill="#000000" transform="matrix(1.00, 0.00, -0.00, -1.00, 394.1, 431.0)">S</text><text xml:space="preserve" font-family="Helvetica-Light" font-size="56.8" fill="#000000" transform="matrix(1.00, 0.00, -0.00, -1.00, 428.8, 431.0)">a</text><text xml:space="preserve" font-family="Helvetica-Light" font-size="56.8" fill="#000000" transform="matrix(1.00, 0.00, -0.00, -1.00, 460.4, 431.0)">l</text><text xml:space="preserve" font-family="Helvetica-Light" font-size="56.8" fill="#000000" transform="matrix(1.00, 0.00, -0.00, -1.00, 473.0, 431.0)">l</text><text xml:space="preserve" font-family="Helvetica-Light" font-size="56.8" fill="#000000" transform="matrix(1.00, 0.00, -0.00, -1.00, 485.6, 431.0)">y</text><text xml:space="preserve" font-family="Helvetica-Light" font-size="56.8" fill="#000000" transform="matrix(1.00, 0.00, -0.00, -1.00, 514.0, 431.0)">’</text><text xml:space="preserve" font-family="Helvetica-Light" font-size="56.8" fill="#000000" transform="matrix(1.00, 0.00, -0.00, -1.00, 522.4, 431.0)">s</text><text xml:space="preserve" font-family="Helvetica-Light" font-size="56.8" fill="#000000" transform="matrix(1.00, 0.00, -0.00, -1.00, 550.8, 431.0)"> </text><text xml:space="preserve" font-family="Helvetica-Light" font-size="56.8" fill="#000000" transform="matrix(1.00, 0.00, -0.00, -1.00, 566.6, 431.0)">F</text><text xml:space="preserve" font-family="Helvetica-Light" font-size="56.8" fill="#000000" transform="matrix(1.00, 0.00, -0.00, -1.00, 598.2, 431.0)">i</text><text xml:space="preserve" font-family="Helvetica-Light" font-size="56.8" fill="#000000" transform="matrix(1.00, 0.00, -0.00, -1.00, 610.8, 431.0)">r</text><text xml:space="preserve" font-family="Helvetica-Light" font-size="56.8" fill="#000000" transform="matrix(1.00, 0.00, -0.00, -1.00, 629.7, 431.0)">s</text><text xml:space="preserve" font-family="Helvetica-Light" font-size="56.8" fill="#000000" transform="matrix(1.00, 0.00, -0.00, -1.00, 658.1, 431.0)">t</text><text xml:space="preserve" font-family="Helvetica-Light" font-size="56.8" fill="#000000" transform="matrix(1.00, 0.00, -0.00, -1.00, 673.9, 431.0)"> </text><text xml:space="preserve" font-family="Helvetica-Light" font-size="56.8" fill="#000000" transform="matrix(1.00, 0.00, -0.00, -1.00, 689.7, 431.0)">D</text><text xml:space="preserve" font-family="Helvetica-Light" font-size="56.8" fill="#000000" transform="matrix(1.00, 0.00, -0.00, -1.00, 730.7, 431.0)">a</text><text xml:space="preserve" font-family="Helvetica-Light" font-size="56.8" fill="#000000" transform="matrix(1.00, 0.00, -0.00, -1.00, 762.3, 431.0)">y</text><text xml:space="preserve" font-family="Helvetica-Light" font-size="56.8" fill="#000000" transform="matrix(1.00, 0.00, -0.00, -1.00, 790.7, 431.0)"> </text><text xml:space="preserve" font-family="Helvetica-Light" font-size="56.8" fill="#000000" transform="matrix(1.00, 0.00, -0.00, -1.00, 806.5, 431.0)">a</text><text xml:space="preserve" font-family="Helvetica-Light" font-size="56.8" fill="#000000" transform="matrix(1.00, 0.00, -0.00, -1.00, 838.1, 431.0)">t</text><text xml:space="preserve" font-family="Helvetica-Light" font-size="56.8" fill="#000000" transform="matrix(1.00, 0.00, -0.00, -1.00, 853.9, 431.0)"> </text><text xml:space="preserve" font-family="Helvetica-Light" font-size="56.8" fill="#000000" transform="matrix(1.00, 0.00, -0.00, -1.00, 111.0, 363.0)">A</text><text xml:space="preserve" font-family="Helvetica-Light" font-size="56.8" fill="#000000" transform="matrix(1.00, 0.00, -0.00, -1.00, 148.9, 363.0)">c</text><text xml:space="preserve" font-family="Helvetica-Light" font-size="56.8" fill="#000000" transform="matrix(1.00, 0.00, -0.00, -1.00, 180.5, 363.0)">m</text><text xml:space="preserve" font-family="Helvetica-Light" font-size="56.8" fill="#000000" transform="matrix(1.00, 0.00, -0.00, -1.00, 227.8, 363.0)">e</text><text xml:space="preserve" font-family="Helvetica-Light" font-size="56.8" fill="#000000" transform="matrix(1.00, 0.00, -0.00, -1.00, 259.4, 363.0)"> </text><text xml:space="preserve" font-family="Helvetica-Light" font-size="56.8" fill="#000000" transform="matrix(1.00, 0.00, -0.00, -1.00, 275.2, 363.0)">T</text><text xml:space="preserve" font-family="Helvetica-Light" font-size="56.8" fill="#000000" transform="matrix(1.00, 0.00, -0.00, -1.00, 300.4, 363.0)">e</text><text xml:space="preserve" font-family="Helvetica-Light" font-size="56.8" fill="#000000" transform="matrix(1.00, 0.00, -0.00, -1.00, 332.0, 363.0)">c</text><text xml:space="preserve" font-family="Helvetica-Light" font-size="56.8" fill="#000000" transform="matrix(1.00, 0.00, -0.00, -1.00, 363.6, 363.0)">h</text><text xml:space="preserve" font-family="Helvetica-Light" font-size="56.8" fill="#000000" transform="matrix(1.00, 0.00, -0.00, -1.00, 395.2, 363.0)">n</text><text xml:space="preserve" font-family="Helvetica-Light" font-size="56.8" fill="#000000" transform="matrix(1.00, 0.00, -0.00, -1.00, 426.8, 363.0)">o</text><text xml:space="preserve" font-family="Helvetica-Light" font-size="56.8" fill="#000000" transform="matrix(1.00, 0.00, -0.00, -1.00, 458.3, 363.0)">l</text><text xml:space="preserve" font-family="Helvetica-Light" font-size="56.8" fill="#000000" transform="matrix(1.00, 0.00, -0.00, -1.00, 470.9, 363.0)">o</text><text xml:space="preserve" font-family="Helvetica-Light" font-size="56.8" fill="#000000" transform="matrix(1.00, 0.00, -0.00, -1.00, 502.5, 363.0)">g</text><text xml:space="preserve" font-family="Helvetica-Light" font-size="56.8" fill="#000000" transform="matrix(1.00, 0.00, -0.00, -1.00, 537.2, 363.0)">i</text><text xml:space="preserve" font-family="Helvetica-Light" font-size="56.8" fill="#000000" transform="matrix(1.00, 0.00, -0.00, -1.00, 549.8, 363.0)">e</text><text xml:space="preserve" font-family="Helvetica-Light" font-size="56.8" fill="#000000" transform="matrix(1.00, 0.00, -0.00, -1.00, 581.4, 363.0)">s</text><text xml:space="preserve" font-family="Helvetica-Light" font-size="56.8" fill="#000000" transform="matrix(1.00, 0.00, -0.00, -1.00, 609.8, 363.0)"> </text><text xml:space="preserve" font-family="Helvetica-Light" font-size="56.8" fill="#000000" transform="matrix(1.00, 0.00, -0.00, -1.00, 625.6, 363.0)">A</text><text xml:space="preserve" font-family="Helvetica-Light" font-size="56.8" fill="#000000" transform="matrix(1.00, 0.00, -0.00, -1.00, 663.5, 363.0)">r</text><text xml:space="preserve" font-family="Helvetica-Light" font-size="56.8" fill="#000000" transform="matrix(1.00, 0.00, -0.00, -1.00, 683.4, 363.0)">m</text><text xml:space="preserve" font-family="Helvetica-Light" font-size="56.8" fill="#000000" transform="matrix(1.00, 0.00, -0.00, -1.00, 730.7, 363.0)">e</text><text xml:space="preserve" font-family="Helvetica-Light" font-size="56.8" fill="#000000" transform="matrix(1.00, 0.00, -0.00, -1.00, 762.3, 363.0)">d</text><text xml:space="preserve" font-family="Helvetica-Light" font-size="56.8" fill="#000000" transform="matrix(1.00, 0.00, -0.00, -1.00, 797.0, 363.0)"> </text><text xml:space="preserve" font-family="Helvetica-Light" font-size="56.8" fill="#000000" transform="matrix(1.00, 0.00, -0.00, -1.00, 812.8, 363.0)">w</text><text xml:space="preserve" font-family="Helvetica-Light" font-size="56.8" fill="#000000" transform="matrix(1.00, 0.00, -0.00, -1.00, 853.8, 363.0)">i</text><text xml:space="preserve" font-family="Helvetica-Light" font-size="56.8" fill="#000000" transform="matrix(1.00, 0.00, -0.00, -1.00, 866.4, 363.0)">t</text><text xml:space="preserve" font-family="Helvetica-Light" font-size="56.8" fill="#000000" transform="matrix(1.00, 0.00, -0.00, -1.00, 882.2, 363.0)">h</text><text xml:space="preserve" font-family="Helvetica-Light" font-size="56.8" fill="#000000" transform="matrix(1.00, 0.00, -0.00, -1.00, 913.8, 363.0)"> </text><text xml:space="preserve" font-family="Helvetica-Light" font-size="56.8" fill="#000000" transform="matrix(1.00, 0.00, -0.00, -1.00, 105.0, 295.0)">h</text><text xml:space="preserve" font-family="Helvetica-Light" font-size="56.8" fill="#000000" transform="matrix(1.00, 0.00, -0.00, -1.00, 136.6, 295.0)">e</text><text xml:space="preserve" font-family="Helvetica-Light" font-size="56.8" fill="#000000" transform="matrix(1.00, 0.00, -0.00, -1.00, 168.2, 295.0)">r</text><text xml:space="preserve" font-family="Helvetica-Light" font-size="56.8" fill="#000000" transform="matrix(1.00, 0.00, -0.00, -1.00, 187.1, 295.0)"> </text><text xml:space="preserve" font-family="Helvetica-Light" font-size="56.8" fill="#000000" transform="matrix(1.00, 0.00, -0.00, -1.00, 202.9, 295.0)">b</text><text xml:space="preserve" font-family="Helvetica-Light" font-size="56.8" fill="#000000" transform="matrix(1.00, 0.00, -0.00, -1.00, 237.6, 295.0)">r</text><text xml:space="preserve" font-family="Helvetica-Light" font-size="56.8" fill="#000000" transform="matrix(1.00, 0.00, -0.00, -1.00, 256.5, 295.0)">a</text><text xml:space="preserve" font-family="Helvetica-Light" font-size="56.8" fill="#000000" transform="matrix(1.00, 0.00, -0.00, -1.00, 288.1, 295.0)">n</text><text xml:space="preserve" font-family="Helvetica-Light" font-size="56.8" fill="#000000" transform="matrix(1.00, 0.00, -0.00, -1.00, 319.6, 295.0)">d</text><text xml:space="preserve" font-family="Helvetica-Light" font-size="56.8" fill="#000000" transform="matrix(1.00, 0.00, -0.00, -1.00, 354.4, 295.0)"> </text><text xml:space="preserve" font-family="Helvetica-Light" font-size="56.8" fill="#000000" transform="matrix(1.00, 0.00, -0.00, -1.00, 370.1, 295.0)">n</text><text xml:space="preserve" font-family="Helvetica-Light" font-size="56.8" fill="#000000" transform="matrix(1.00, 0.00, -0.00, -1.00, 401.7, 295.0)">e</text><text xml:space="preserve" font-family="Helvetica-Light" font-size="56.8" fill="#000000" transform="matrix(1.00, 0.00, -0.00, -1.00, 433.3, 295.0)">w</text><text xml:space="preserve" font-family="Helvetica-Light" font-size="56.8" fill="#000000" transform="matrix(1.00, 0.00, -0.00, -1.00, 474.3, 295.0)"> </text><text xml:space="preserve" font-family="Helvetica-Light" font-size="56.8" fill="#000000" transform="matrix(1.00, 0.00, -0.00, -1.00, 490.1, 295.0)">B</text><text xml:space="preserve" font-family="Helvetica-Light" font-size="56.8" fill="#000000" transform="matrix(1.00, 0.00, -0.00, -1.00, 528.0, 295.0)">.</text><text xml:space="preserve" font-family="Helvetica-Light" font-size="56.8" fill="#000000" transform="matrix(1.00, 0.00, -0.00, -1.00, 543.8, 295.0)">S</text><text xml:space="preserve" font-family="Helvetica-Light" font-size="56.8" fill="#000000" transform="matrix(1.00, 0.00, -0.00, -1.00, 578.5, 295.0)">.</text><text xml:space="preserve" font-family="Helvetica-Light" font-size="56.8" fill="#000000" transform="matrix(1.00, 0.00, -0.00, -1.00, 594.3, 295.0)"> </text><text xml:space="preserve" font-family="Helvetica-Light" font-size="56.8" fill="#000000" transform="matrix(1.00, 0.00, -0.00, -1.00, 610.1, 295.0)">i</text><text xml:space="preserve" font-family="Helvetica-Light" font-size="56.8" fill="#000000" transform="matrix(1.00, 0.00, -0.00, -1.00, 622.7, 295.0)">n</text><text xml:space="preserve" font-family="Helvetica-Light" font-size="56.8" fill="#000000" transform="matrix(1.00, 0.00, -0.00, -1.00, 654.3, 295.0)"> </text><text xml:space="preserve" font-family="Helvetica-Light" font-size="56.8" fill="#000000" transform="matrix(1.00, 0.00, -0.00, -1.00, 670.0, 295.0)">C</text><text xml:space="preserve" font-family="Helvetica-Light" font-size="56.8" fill="#000000" transform="matrix(1.00, 0.00, -0.00, -1.00, 711.1, 295.0)">o</text><text xml:space="preserve" font-family="Helvetica-Light" font-size="56.8" fill="#000000" transform="matrix(1.00, 0.00, -0.00, -1.00, 742.6, 295.0)">m</text><text xml:space="preserve" font-family="Helvetica-Light" font-size="56.8" fill="#000000" transform="matrix(1.00, 0.00, -0.00, -1.00, 790.0, 295.0)">p</text><text xml:space="preserve" font-family="Helvetica-Light" font-size="56.8" fill="#000000" transform="matrix(1.00, 0.00, -0.00, -1.00, 824.7, 295.0)"> </text><text xml:space="preserve" font-family="Helvetica-Light" font-size="56.8" fill="#000000" transform="matrix(1.00, 0.00, -0.00, -1.00, 840.4, 295.0)">S</text><text xml:space="preserve" font-family="Helvetica-Light" font-size="56.8" fill="#000000" transform="matrix(1.00, 0.00, -0.00, -1.00, 875.2, 295.0)">c</text><text xml:space="preserve" font-family="Helvetica-Light" font-size="56.8" fill="#000000" transform="matrix(1.00, 0.00, -0.00, -1.00, 906.7, 295.0)">i</text></g></svg>